{
.appVersion = "3087";
.formatVersion = 3;
DisplayStrings = (
"    Вкъщи не яж сьомга с фиде без ракийка и хапка люта чушчица!",
"Weste Wolf Wüste Wörpe Wärter Waage Wiege Wlasta"
);
axes = (
{
name = Weight;
tag = wght;
}
);
date = "2016-11-08 10:02:54 +0000";
familyName = "Mell Mono 0.5";
featurePrefixes = (
{
automatic = 1;
code = "languagesystem DFLT dflt;
languagesystem cyrl dflt;
languagesystem latn dflt;
languagesystem latn CAT;
languagesystem latn ROM;
languagesystem latn MOL;
languagesystem latn TRK;
";
name = Languagesystems;
}
);
features = (
{
automatic = 1;
code = "feature locl;
feature frac;
";
tag = aalt;
},
{
automatic = 1;
code = "script latn;
language CAT;
sub  l' periodcentered' l by ldot;
sub  L' periodcentered' L by Ldot;
language ROM;
sub Scedilla by Scommaaccent;
sub scedilla by scommaaccent;
sub Tcedilla by Tcommaaccent;
sub tcedilla by tcommaaccent;
language MOL;
sub Scedilla by Scommaaccent;
sub scedilla by scommaaccent;
sub Tcedilla by Tcommaaccent;
sub tcedilla by tcommaaccent;
language KAZ;
sub i by idotaccent;
language TAT;
sub i by idotaccent;
language TRK;
sub i by idotaccent;
language CRT;
sub i by idotaccent;
language AZE;
sub i by idotaccent;
";
tag = locl;
},
{
automatic = 1;
code = "lookup FRAC {
	sub slash by fraction;
} FRAC;
lookup UP {
	sub [zero one two three four five six seven eight nine] by [zero.numr one.numr two.numr three.numr four.numr five.numr six.numr seven.numr eight.numr nine.numr];
} UP;
lookup DOWN {
	sub fraction [zero.numr one.numr two.numr three.numr four.numr five.numr six.numr seven.numr eight.numr nine.numr]' by [zero.dnom one.dnom two.dnom three.dnom four.dnom five.dnom six.dnom seven.dnom eight.dnom nine.dnom];

glyphs = (
{
glyphname = B;
lastChange = "2023-04-05 13:00:33 +0000";
layers = (
{
background = {
shapes = (
{
closed = 1;
nodes = (
(300,356,o),
(243,353,o),
(323,362,c),
(377,379,o),
(413,421,o),
(413,508,cs),
(413,638,o),
(359,703,o),
(221,701,cs),
(151,700,l),
(151,700,o),
(148,356,o),
(148,356,cs)
);
},
{
closed = 1;
nodes = (
(202,619,ls),
(290,619,o),
(326,586,o),
(326,513,cs),
(326,439,o),
(311,396,o),
(226,396,cs),
(131,396,l),
(131,619,l)
);
}
);
};
layerId = "7EBE3D46-E53E-419E-A3EC-596DA2EA1E0D";
name = Regular;
shapes = (
{
alignment = -1;
pos = (40,19);
ref = _I_small;
},
{
alignment = -1;
pos = (40,158);
ref = _I_small;
},
{
alignment = -1;
pos = (40,472);
ref = _I_small;
},
{
alignment = -1;
pos = (98,657);
ref = _curve_B;
scale = (1,-1);
},
{
alignment = -1;
pos = (78,3);
ref = _curve_B;
},
{
alignment = -1;
pos = (40,321);
ref = _I_small;
}
);
width = 600;
},
{
background = {
shapes = (
{
closed = 1;
nodes = (
(300,356,o),
(243,353,o),
(323,362,c),
(377,379,o),
(413,421,o),
(413,508,cs),
(413,638,o),
(359,703,o),
(221,701,cs),
(151,700,l),
(151,700,o),
(148,356,o),
(148,356,cs)
);
},
{
closed = 1;
nodes = (
(202,619,ls),
(290,619,o),
(326,586,o),
(326,513,cs),
(326,439,o),
(311,396,o),
(226,396,cs),
(131,396,l),
(131,619,l)
);
}
);
};
layerId = m002;
name = Regular;
shapes = (
{
alignment = -1;
pos = (-58,19);
ref = _I_small;
},
{
alignment = -1;
pos = (-58,158);
ref = _I_small;
},
{
alignment = -1;
pos = (-58,423);
ref = _I_small;
},
{
alignment = -1;
pos = (50,627);
ref = _curve_B;
scale = (1,-1);
},
{
alignment = -1;
pos = (50,-7);
ref = _curve_B;
},
{
alignment = -1;
pos = (-58,321);
ref = _I_small;
}
);
width = 500;
}
);
unicode = 66;
},
{
glyphname = G;
kernLeft = O;
kernRight = O;
lastChange = "2023-05-18 14:31:55 +0000";
layers = (
{
layerId = "7EBE3D46-E53E-419E-A3EC-596DA2EA1E0D";
name = Regular;
shapes = (
{
closed = 1;
nodes = (
(225,159,o),
(169,-1,o),
(327,-1,cs),
(502,-1,o),
(596,131,o),
(597,303,cs),
(597,320,o),
(598,346,o),
(587,385,c),
(363,385,l),
(353,340,o),
(358,300,o),
(363,254,c),
(478,254,l),
(468,199,o),
(424,159,o),
(337,159,cs)
);
},
{
closed = 1;
nodes = (
(465,646,o),
(399,661,o),
(322,661,cs),
(129,661,o),
(40,492,o),
(40,349,c),
(40,122,o),
(168,-1,o),
(326,-1,c),
(336,159,l),
(224,159,o),
(164,224,o),
(164,340,cs),
(164,344,ls),
(164,405,o),
(198,500,o),
(344,500,cs),
(390,500,o),
(461,485,o),
(491,468,c),
(500,512,o),
(503,567,o),
(506,628,c)
);
}
);
width = 600;
},
{
layerId = m002;
name = Regular;
shapes = (
{
closed = 1;
nodes = (
(238,32,o),
(200,-1,o),
(258,-1,cs),
(433,-1,o),
(493,131,o),
(482,309,cs),
(481,315,o),
(481,322,o),
(480,328,c),
(299,328,l),
(298,314,o),
(297,300,o),
(299,284,c),
(449,284,l),
(460,107,o),
(357,32,o),
(250,32,cs)
);
},
{
closed = 1;
nodes = (
(383,625,o),
(363,640,o),
(255,640,cs),
(81,640,o),
(43,467,o),
(43,324,c),
(43,97,o),
(101,0,o),
(259,0,c),
(249,32,l),
(157,32,o),
(73,97,o),
(73,315,cs),
(73,319,ls),
(73,480,o),
(132,607,o),
(267,607,cs),
(331,607,o),
(391,590,o),
(431,566,c),
(433,575,o),
(434,590,o),
(434,602,c)
);
}
);
width = 500;
}
);
unicode = 71;
},
{
glyphname = J;
kernLeft = A;
lastChange = "2023-04-05 06:31:05 +0000";
layers = (
{
layerId = "7EBE3D46-E53E-419E-A3EC-596DA2EA1E0D";
name = Regular;
shapes = (
{
alignment = -1;
pos = (313,359);
ref = _I_small;
},
{
alignment = -1;
pos = (122,209);
ref = _EF_horizontal;
},
{
closed = 1;
nodes = (
(343,344,l),
(343,340,ls),
(343,224,o),
(313,159,o),
(201,159,cs),
(162,159,o),
(119,163,o),
(76,196,c),
(58,145,o),
(56,88,o),
(50,37,c),
(124,-3,o),
(149,-1,o),
(211,-1,cs),
(369,-1,o),
(468,118,o),
(468,345,c)
);
},
{
alignment = -1;
pos = (22,209);
ref = _EF_horizontal;
},
{
alignment = -1;
pos = (313,409);
ref = _I_small;
}
);
width = 600;
},
{
layerId = m002;
name = Regular;
shapes = (
{
alignment = -1;
pos = (273,369);
ref = _I_small;
},
{
alignment = -1;
pos = (72,243);
ref = _EF_horizontal;
},
{
closed = 1;
nodes = (
(401,354,l),
(401,350,ls),
(401,131,o),
(352,29,o),
(220,29,cs),
(181,29,o),
(110,43,o),
(67,76,c),
(59,60,o),
(54,54,o),
(50,37,c),
(124,-3,o),
(159,-6,o),
(221,-6,cs),
(399,-6,o),
(428,128,o),
(428,355,c)
);
},
{
alignment = -1;
pos = (-18,243);
ref = _EF_horizontal;
},
{
alignment = -1;
pos = (273,419);
ref = _I_small;
}
);
width = 500;
}
);
unicode = 74;
},
{
glyphname = K;
lastChange = "2023-04-05 12:55:14 +0000";
layers = (
{
layerId = "7EBE3D46-E53E-419E-A3EC-596DA2EA1E0D";
name = Regular;
shapes = (
{
alignment = -1;
pos = (40,0);
ref = _I;
},
{
closed = 1;
nodes = (
(362,398,o),
(481,563,o),
(568,659,c),
(513,661,o),
(459,661,o),
(386,659,c),
(292,553,o),
(176,348,o),
(176,324,cs),
(176,301,o),
(294,96,o),
(388,3,c),
(453,-1,o),
(518,0,o),
(581,3,c),
(502,86,o),
(362,248,o),
(314,326,c)
);
}
);
width = 600;
},
{
layerId = m002;
name = Regular;
shapes = (
{
alignment = -1;
pos = (-7,0);
ref = _I;
},
{
closed = 1;
nodes = (
(202,398,o),
(330,533,o),
(464,629,c),
(425,631,o),
(438,631,o),
(403,629,c),
(258,503,o),
(94,348,o),
(94,324,cs),
(94,301,o),
(248,154,o),
(430,3,c),
(454,-1,o),
(448,0,o),
(499,3,c),
(377,86,o),
(202,248,o),
(128,326,c)
);
}
);
width = 500;
}
);
unicode = 75;
},
{
glyphname = N;
lastChange = "2023-04-22 14:04:58 +0000";
layers = (
{
layerId = "7EBE3D46-E53E-419E-A3EC-596DA2EA1E0D";
name = Regular;
shapes = (
{
alignment = -1;
pos = (40,316);
ref = _I_small;
},
{
alignment = -1;
pos = (40,124);
ref = _I_small;
},
{
alignment = -1;
pos = (40,17);
ref = _I_small;
},
{
alignment = -1;
pos = (374,369);
ref = _I_small;
},
{
alignment = -1;
pos = (374,200);
ref = _I_small;
},
{
alignment = -1;
pos = (374,475);
ref = _I_small;
},
{
closed = 1;
nodes = (
(499,-5,o),
(529,25,o),
(529,78,cs),
(529,182,ls),
(529,196,o),
(445,199,o),
(434,208,c),
(258,599,ls),
(236,648,o),
(196,668,o),
(159,668,cs),
(110,668,o),
(72,637,o),
(71,573,cs),
(70,509,ls),
(70,494,o),
(83,490,o),
(95,483,cs),
(151,449,o),
(159,510,o),
(162,504,cs),
(368,68,ls),
(391,19,o),
(415,-5,o),
(463,-5,cs)
);
}
);
width = 600;
},
{
layerId = m002;
name = Regular;
shapes = (
{
alignment = -1;
pos = (-58,406);
ref = _I_small;
},
{
alignment = -1;
pos = (-58,214);
ref = _I_small;
},
{
alignment = -1;
pos = (-58,17);
ref = _I_small;
},
{
alignment = -1;
pos = (274,216);
ref = _I_small;
},
{
alignment = -1;
pos = (274,46);
ref = _I_small;
},
{
alignment = -1;
pos = (274,432);
ref = _I_small;
},
{
closed = 1;
nodes = (
(419,0,o),
(429,10,o),
(429,22,cs),
(429,42,ls),
(429,56,o),
(415,34,o),
(404,43,c),
(123,605,ls),
(116,620,o),
(109,630,o),
(93,630,cs),
(78,630,o),
(70,620,o),
(70,605,cs),
(70,555,ls),
(70,540,o),
(72,572,o),
(86,572,cs),
(92,572,o),
(94,596,o),
(97,590,cs),
(384,22,ls),
(392,6,o),
(400,0,o),
(409,0,cs)
);
}
);
width = 500;
}
);
unicode = 78;
},
{
glyphname = P;
lastChange = "2023-04-05 13:05:25 +0000";
layers = (
{
layerId = "7EBE3D46-E53E-419E-A3EC-596DA2EA1E0D";
name = Regular;
shapes = (
{
alignment = -1;
pos = (40,19);
ref = _I_small;
},
{
alignment = -1;
pos = (40,164);
ref = _I_small;
},
{
alignment = -1;
pos = (40,327);
ref = _I_small;
},
{
alignment = -1;
pos = (40,473);
ref = _I_small;
},
{
closed = 1;
nodes = (
(562,541,o),
(488,660,o),
(294,660,c),
(219,661,o),
(132,661,o),
(92,661,c),
(92,481,l),
(119,498,o),
(230,497,o),
(294,495,c),
(378,495,o),
(438,480,o),
(438,413,c),
(437,346,o),
(385,330,o),
(294,330,c),
(229,328,o),
(119,340,o),
(92,357,c),
(92,223,l),
(132,216,o),
(247,204,o),
(323,208,cs),
(493,216,o),
(562,313,o),
(562,418,c),
(562,419,o),
(562,412,o),
(562,413,c),
(562,416,l)
);
}
);
width = 600;
},
{
layerId = m002;
name = Regular;
shapes = (
{
alignment = -1;
pos = (-58,19);
ref = _I_small;
},
{
alignment = -1;
pos = (-58,164);
ref = _I_small;
},
{
alignment = -1;
pos = (-58,327);
ref = _I_small;
},
{
alignment = -1;
pos = (-58,432);
ref = _I_small;
},
{
closed = 1;
nodes = (
(461,520,o),
(387,634,o),
(233,634,c),
(158,635,o),
(119,632,o),
(81,630,c),
(81,596,l),
(108,603,o),
(171,603,o),
(235,601,c),
(339,601,o),
(431,527,o),
(431,395,c),
(431,267,o),
(320,205,o),
(233,205,c),
(168,203,o),
(108,215,o),
(81,232,c),
(81,192,l),
(121,185,o),
(186,172,o),
(262,177,cs),
(392,186,o),
(461,292,o),
(461,397,c),
(461,398,o),
(461,391,o),
(461,392,c),
(461,395,l)
);
}
);
width = 500;
}
);
unicode = 80;
},
{
glyphname = Q;
lastChange = "2023-04-05 12:54:27 +0000";
layers = (
{
layerId = "7EBE3D46-E53E-419E-A3EC-596DA2EA1E0D";
name = Regular;
shapes = (
{
closed = 1;
nodes = (
(432,-110,l),
(540,-53,l),
(387,243,l),
(302,192,l)
);
},
{
ref = O;
}
);
width = 600;
},
{
layerId = m002;
name = Regular;
shapes = (
{
closed = 1;
nodes = (
(432,-134,l),
(473,-113,l),
(322,178,l),
(302,168,l)
);
},
{
ref = O;
}
);
width = 500;
}
);
unicode = 81;
},
{
glyphname = R;
lastChange = "2023-04-05 13:00:39 +0000";
layers = (
{
layerId = "7EBE3D46-E53E-419E-A3EC-596DA2EA1E0D";
name = Regular;
shapes = (
{
closed = 1;
nodes = (
(522,109,o),
(445,270,o),
(389,281,c),
(165,226,l),
(244,226,l),
(314,226,o),
(330,224,o),
(357,153,cs),
(415,0,l),
(565,0,l)
);
},
{
pos = (40,19);
ref = _I_small;
},
{
pos = (40,144);
ref = _I_small;
},
{
pos = (40,327);
ref = _I_small;
},
{
pos = (40,473);
ref = _I_small;
},
{
closed = 1;
nodes = (
(542,561,o),
(442,658,o),
(303,660,c),
(228,661,o),
(152,661,o),
(112,661,c),
(112,481,l),
(139,498,o),
(230,497,o),
(294,495,c),
(378,495,o),
(418,460,o),
(418,413,c),
(417,366,o),
(385,330,o),
(294,330,c),
(229,328,o),
(139,330,o),
(112,327,c),
(112,243,l),
(152,236,o),
(198,227,o),
(303,228,c),
(442,230,o),
(542,315,o),
(542,420,c),
(542,421,o),
(542,422,o),
(542,423,c),
(542,426,l)
);
}
);
width = 600;
},
{
layerId = m002;
name = Regular;
shapes = (
{
closed = 1;
nodes = (
(421,94,o),
(337,289,o),
(237,285,c),
(178,280,l),
(197,270,l),
(267,270,o),
(326,200,o),
(361,135,cs),
(434,0,l),
(478,0,l)
);
},
{
pos = (-62,19);
ref = _I_small;
},
{
pos = (-62,164);
ref = _I_small;
},
{
pos = (-62,327);
ref = _I_small;
},
{
pos = (-62,433);
ref = _I_small;
},
{
closed = 1;
nodes = (
(448,555,o),
(367,628,o),
(219,630,cs),
(160,631,o),
(121,631,o),
(73,631,c),
(73,597,l),
(123,601,o),
(159,599,o),
(210,598,cs),
(368,598,o),
(417,518,o),
(417,444,cs),
(417,376,o),
(389,290,o),
(210,290,cs),
(161,289,o),
(124,292,o),
(73,294,c),
(73,271,l),
(109,272,o),
(145,269,o),
(229,270,cs),
(379,272,o),
(448,325,o),
(448,441,cs),
(448,442,o),
(448,443,o),
(448,444,cs),
(448,447,ls)
);
}
);
width = 500;
}
);
unicode = 82;
},
{
glyphname = S;
lastChange = "2023-04-05 13:05:30 +0000";
layers = (
{
layerId = "7EBE3D46-E53E-419E-A3EC-596DA2EA1E0D";
name = Regular;
shapes = (
{
closed = 1;
nodes = (
(266,400,o),
(211,425,o),
(211,468,cs),
(211,501,o),
(259,505,o),
(305,504,cs),
(367,503,o),
(438,479,o),
(484,455,c),
(511,632,l),
(436,657,o),
(363,670,o),
(292,670,cs),
(130,670,o),
(63,592,o),
(63,470,cs),
(63,381,o),
(149,319,o),
(254,282,cs),
(345,250,o),
(391,234,o),
(391,200,cs),
(391,159,o),
(346,156,o),
(279,156,cs),
(217,156,o),
(136,175,o),
(88,199,c),
(50,27,l),
(124,2,o),
(243,-10,o),
(314,-10,cs),
(434,-10,o),
(542,62,o),
(542,190,cs),
(542,291,o),
(453,333,o),
(361,366,cs)
);
}
);
width = 600;
},
{
layerId = m002;
name = Regular;
shapes = (
{
closed = 1;
nodes = (
(184,365,o),
(80,412,o),
(80,495,cs),
(80,593,o),
(205,607,o),
(295,597,cs),
(332,593,o),
(383,585,o),
(416,574,c),
(422,613,l),
(369,627,o),
(309,634,o),
(258,634,cs),
(130,634,o),
(46,593,o),
(46,492,cs),
(46,403,o),
(147,345,o),
(246,309,cs),
(361,267,o),
(424,238,o),
(424,158,cs),
(424,62,o),
(329,31,o),
(246,31,cs),
(180,31,o),
(103,44,o),
(56,66,c),
(46,32,l),
(120,7,o),
(147,0,o),
(250,0,cs),
(361,0,o),
(461,43,o),
(461,157,cs),
(461,250,o),
(399,286,o),
(309,319,cs)
);
}
);
width = 500;
}
);
unicode = 83;
},
{
glyphname = U;
lastChange = "2023-04-05 13:01:40 +0000";
layers = (
{
layerId = "7EBE3D46-E53E-419E-A3EC-596DA2EA1E0D";
name = Regular;
shapes = (
{
closed = 1;
nodes = (
(294,-29,l),
(466,-29,o),
(536,87,o),
(536,318,c),
(536,319,o),
(411,318,o),
(411,317,c),
(411,194,o),
(394,136,o),
(294,136,c)
);
},
{
closed = 1;
nodes = (
(212,136,o),
(185,194,o),
(185,317,c),
(185,318,o),
(60,319,o),
(60,318,c),
(60,87,o),
(140,-29,o),
(302,-29,c),
(302,136,l)
);
},
{
alignment = -1;
pos = (381,473);
ref = _I_small;
},
{
alignment = -1;
pos = (30,336);
ref = _I_small;
},
{
alignment = -1;
pos = (30,473);
ref = _I_small;
},
{
alignment = -1;
pos = (381,334);
ref = _I_small;
}
);
width = 600;
},
{
layerId = m002;
name = Regular;
shapes = (
{
closed = 1;
nodes = (
(241,-9,l),
(393,-9,o),
(445,117,o),
(445,328,c),
(445,329,o),
(418,330,o),
(418,329,c),
(418,163,o),
(390,25,o),
(239,25,c)
);
},
{
closed = 1;
nodes = (
(100,25,o),
(82,163,o),
(82,329,c),
(82,330,o),
(55,329,o),
(55,328,c),
(55,117,o),
(97,-9,o),
(249,-9,c),
(251,25,l)
);
},
{
alignment = -1;
pos = (290,433);
ref = _I_small;
},
{
alignment = -1;
pos = (-73,336);
ref = _I_small;
},
{
alignment = -1;
pos = (-73,433);
ref = _I_small;
},
{
alignment = -1;
pos = (290,334);
ref = _I_small;
}
);
width = 500;
}
);
unicode = 85;
},
{
glyphname = W;
kernLeft = T;
kernRight = T;
lastChange = "2023-04-22 14:16:47 +0000";
layers = (
{
layerId = "7EBE3D46-E53E-419E-A3EC-596DA2EA1E0D";
name = Regular;
shapes = (
{
closed = 1;
nodes = (
(329,25,o),
(375,-1,o),
(418,-1,cs),
(464,-1,o),
(499,31,o),
(507,90,cs),
(586,661,l),
(429,661,l),
(408,348,l),
(381,590,ls),
(375,641,o),
(346,672,o),
(296,672,cs),
(296,672,l),
(243,672,o),
(216,643,o),
(211,592,cs),
(188,351,l),
(170,661,l),
(20,661,l),
(98,87,ls),
(106,30,o),
(133,-1,o),
(184,-1,cs),
(229,-1,o),
(264,27,o),
(271,87,cs),
(296,314,l),
(323,81,ls)
);
}
);
width = 600;
},
{
layerId = m002;
name = Regular;
shapes = (
{
closed = 1;
nodes = (
(337,20,o),
(348,-1,o),
(367,-1,cs),
(384,-1,o),
(395,20,o),
(398,39,cs),
(480,630,l),
(443,630,l),
(366,43,l),
(274,586,ls),
(270,607,o),
(260,626,o),
(244,626,cs),
(243,626,l),
(226,626,o),
(215,607,o),
(212,586,cs),
(128,43,l),
(56,630,l),
(22,630,l),
(95,39,ls),
(97,20,o),
(107,-1,o),
(128,-1,cs),
(144,-1,o),
(156,19,o),
(159,39,cs),
(243,588,l),
(334,39,ls)
);
}
);
width = 500;
}
);
unicode = 87;
},
{
glyphname = a;
kernLeft = e;
kernRight = e;
lastChange = "2023-05-18 14:15:06 +0000";
layers = (
{
layerId = "7EBE3D46-E53E-419E-A3EC-596DA2EA1E0D";
name = Regular;
shapes = (
{
closed = 1;
nodes = (
(130,281,o),
(59,235,o),
(59,134,cs),
(59,25,o),
(181,-4,o),
(236,-4,cs),
(335,-4,o),
(397,29,o),
(420,72,c),
(420,0,l),
(537,0,l),
(537,305,l),
(537,430,o),
(448,515,o),
(290,515,cs),
(206,515,o),
(168,507,o),
(90,486,c),
(89,436,o),
(91,378,o),
(100,325,c),
(154,343,o),
(212,350,o),
(291,350,cs),
(382,350,o),
(414,324,o),
(414,287,cs),
(414,281,l),
(230,281,ls)
);
},
{
closed = 1;
nodes = (
(195,199,o),
(223,207,o),
(291,207,cs),
(415,207,l),
(415,206,ls),
(415,169,o),
(369,141,o),
(295,141,cs),
(225,141,o),
(195,146,o),
(195,175,cs)
);
}
);
width = 600;
},
{
layerId = m002;
name = Regular;
shapes = (
{
closed = 1;
nodes = (
(101,276,o),
(30,235,o),
(30,134,cs),
(30,45,o),
(102,-14,o),
(197,-14,cs),
(336,-14,o),
(413,59,o),
(426,122,c),
(430,-1,l),
(448,-1,l),
(448,305,l),
(448,430,o),
(369,515,o),
(241,515,cs),
(177,515,o),
(139,507,o),
(61,486,c),
(63,480,o),
(69,461,o),
(71,458,c),
(125,476,o),
(183,489,o),
(242,489,cs),
(353,489,o),
(423,414,o),
(423,307,cs),
(423,276,l),
(201,276,ls)
);
},
{
closed = 1;
nodes = (
(52,209,o),
(104,256,o),
(242,256,cs),
(424,256,l),
(425,182,ls),
(426,76,o),
(300,12,o),
(196,12,cs),
(106,12,o),
(52,75,o),
(52,134,cs)
);
}
);
width = 500;
}
);
unicode = 97;
},
{
glyphname = d;
kernLeft = e;
kernRight = h;
lastChange = "2023-04-05 18:23:47 +0000";
layers = (
{
layerId = "7EBE3D46-E53E-419E-A3EC-596DA2EA1E0D";
name = Regular;
shapes = (
{
closed = 1;
nodes = (
(411,208,l),
(411,97,l),
(483,97,l),
(483,208,l)
);
},
{
pos = (375,472);
ref = _I_small;
},
{
angle = 180;
pos = (557,510);
ref = _curve_b;
}
);
width = 600;
},
{
layerId = m002;
name = Regular;
shapes = (
{
closed = 1;
nodes = (
(416,286,l),
(416,245,l),
(433,245,l),
(433,286,l)
);
},
{
pos = (281,472);
ref = _I_small;
},
{
angle = 180;
pos = (491,509);
ref = _curve_b;
}
);
width = 500;
}
);
unicode = 100;
},
{
glyphname = eth;
lastChange = "2023-04-06 11:18:26 +0000";
layers = (
{
layerId = "7EBE3D46-E53E-419E-A3EC-596DA2EA1E0D";
name = Regular;
shapes = (
{
closed = 1;
nodes = (
(479,703,l),
(366,728,l),
(183,489,l),
(308,469,l)
);
},
{
pos = (558,0);
ref = six;
scale = (-1,1);
}
);
width = 600;
},
{
layerId = m002;
name = Regular;
shapes = (
{
closed = 1;
nodes = (
(359,713,l),
(336,718,l),
(123,489,l),
(158,489,l)
);
},
{
pos = (488,0);
ref = six;
scale = (-1,1);
}
);
width = 500;
}
);
unicode = 240;
},
{
glyphname = e;
kernLeft = e;
kernRight = e;
lastChange = "2023-05-18 14:12:13 +0000";
layers = (
{
layerId = "7EBE3D46-E53E-419E-A3EC-596DA2EA1E0D";
name = Regular;
shapes = (
{
closed = 1;
nodes = (
(558,253,o),
(556,293,o),
(554,312,c),
(495,292,l),
(163,292,l),
(163,233,l),
(554,233,l)
);
},
{
pos = (76,1);
ref = _o_curve;
},
{
closed = 1;
nodes = (
(409,356,o),
(433,322,o),
(453,284,c),
(556,232,l),
(584,420,o),
(450,517,o),
(327,517,c),
(327,356,l)
);
},
{
closed = 1;
nodes = (
(60,236,l),
(60,87,o),
(193,-8,o),
(309,-8,c),
(391,-7,o),
(419,7,o),
(460,28,c),
(464,68,o),
(456,145,o),
(444,179,c),
(420,166,o),
(388,152,o),
(329,152,c),
(243,152,o),
(174,179,o),
(174,255,c),
(174,258,l),
(174,366,o),
(60,342,o),
(60,258,c)
);
}
);
width = 600;
},
{
layerId = m002;
name = Regular;
shapes = (
{
closed = 1;
nodes = (
(459,227,o),
(450,234,o),
(450,252,c),
(448,250,l),
(58,250,l),
(58,216,l),
(457,215,l)
);
},
{
pos = (6,-3);
ref = _o_curve;
},
{
closed = 1;
nodes = (
(357,470,o),
(440,409,o),
(430,243,c),
(457,216,l),
(465,404,o),
(394,500,o),
(251,500,c),
(251,470,l)
);
},
{
closed = 1;
nodes = (
(40,236,l),
(40,87,o),
(130,1,o),
(246,1,c),
(308,2,o),
(350,12,o),
(421,42,c),
(422,52,o),
(421,62,o),
(420,70,c),
(363,43,o),
(308,30,o),
(247,30,c),
(151,30,o),
(70,90,o),
(70,256,c),
(70,259,l),
(70,367,o),
(40,342,o),
(40,258,c)
);
}
);
width = 500;
}
);
unicode = 101;
},
{
glyphname = f;
kernLeft = h;
kernRight = f;
lastChange = "2023-04-05 18:12:14 +0000";
layers = (
{
layerId = "7EBE3D46-E53E-419E-A3EC-596DA2EA1E0D";
name = Regular;
shapes = (
{
alignment = -1;
angle = 180;
pos = (225,188);
ref = _I_small;
},
{
alignment = -1;
angle = 180;
pos = (225,350);
ref = _I_small;
},
{
closed = 1;
nodes = (
(100,213,l),
(452,213,l),
(452,345,l),
(100,345,l)
);
},
{
alignment = -1;
pos = (-47,-22);
ref = _f_integral;
}
);
width = 600;
},
{
layerId = m002;
name = Regular;
shapes = (
{
alignment = -1;
angle = 180;
pos = (225,197);
ref = _I_small;
},
{
alignment = -1;
angle = 180;
pos = (225,390);
ref = _I_small;
},
{
closed = 1;
nodes = (
(89,322,l),
(331,322,l),
(331,352,l),
(89,352,l)
);
},
{
alignment = -1;
pos = (-47,-25);
ref = _f_integral;
}
);
width = 500;
}
);
unicode = 102;
},
{
glyphname = g;
kernLeft = e;
lastChange = "2023-05-24 14:26:03 +0000";
layers = (
{
layerId = "7EBE3D46-E53E-419E-A3EC-596DA2EA1E0D";
name = Regular;
shapes = (
{
closed = 1;
nodes = (
(545,372,l),
(550,412,o),
(552,463,o),
(543,510,c),
(291,510,l),
(225,510,o),
(285,439,o),
(307,390,c)
);
},
{
closed = 1;
nodes = (
(466,-201,o),
(557,-142,o),
(557,-20,c),
(557,91,o),
(461,160,o),
(292,160,c),
(156,160,o),
(166,172,o),
(185,197,c),
(190,228,l),
(124,253,l),
(71,212,o),
(60,95,o),
(129,71,c),
(64,65,o),
(35,21,o),
(35,-57,c),
(36,-125,o),
(56,-201,o),
(269,-201,c),
(314,-201,l)
);
},
{
closed = 1;
nodes = (
(290,-75,l),
(178,-75,o),
(148,-60,o),
(148,-40,cs),
(148,-17,o),
(182,0,o),
(290,0,c),
(293,0,l),
(409,0,o),
(444,-16,o),
(444,-39,cs),
(444,-60,o),
(415,-75,o),
(293,-75,c)
);
},
{
closed = 1;
nodes = (
(529,430,o),
(405,438,o),
(302,440,c),
(303,510,l),
(283,510,l),
(112,510,o),
(49,433,o),
(49,336,c),
(49,335,ls),
(49,241,o),
(122,185,o),
(283,185,c),
(287,185,l),
(289,185,o),
(290,185,o),
(292,185,c),
(296,185,l),
(457,185,o),
(529,239,o),
(529,307,c)
);
},
{
closed = 1;
nodes = (
(290,285,l),
(290,285,o),
(290,285,o),
(290,285,c),
(284,285,l),
(179,285,o),
(162,301,o),
(162,321,c),
(162,339,o),
(179,350,o),
(284,350,c),
(290,350,l),
(290,350,o),
(290,350,o),
(290,350,c),
(295,350,l),
(400,350,o),
(416,337,o),
(416,321,c),
(416,301,o),
(400,285,o),
(295,285,c)
);
}
);
width = 600;
},
{
layerId = m002;
name = Regular;
shapes = (
{
closed = 1;
nodes = (
(464,479,l),
(463,489,o),
(463,500,o),
(462,510,c),
(297,510,l),
(251,510,o),
(246,503,o),
(282,493,c)
);
},
{
closed = 1;
nodes = (
(396,-201,o),
(487,-165,o),
(487,-84,c),
(487,-9,o),
(442,29,o),
(263,29,cs),
(82,29,o),
(103,132,o),
(122,157,c),
(129,165,l),
(107,175,l),
(51,125,o),
(106,28,o),
(179,16,c),
(114,10,o),
(35,-10,o),
(35,-88,c),
(36,-156,o),
(112,-201,o),
(239,-201,c),
(284,-201,l)
);
},
{
closed = 1;
nodes = (
(258,-174,l),
(107,-174,o),
(54,-126,o),
(52,-88,c),
(54,-25,o),
(115,0,o),
(258,0,c),
(264,0,l),
(403,0,o),
(466,-27,o),
(467,-85,c),
(466,-130,o),
(414,-174,o),
(264,-174,c)
);
},
{
closed = 1;
nodes = (
(469,444,o),
(384,476,o),
(316,488,c),
(307,510,l),
(253,510,l),
(112,510,o),
(49,426,o),
(49,296,c),
(49,295,l),
(53,191,o),
(122,115,o),
(253,115,c),
(257,115,l),
(259,115,o),
(260,115,o),
(262,115,c),
(266,115,l),
(397,115,o),
(469,192,o),
(469,293,c)
);
},
{
closed = 1;
nodes = (
(260,148,l),
(260,148,o),
(260,148,o),
(260,148,c),
(254,148,l),
(179,148,o),
(71,181,o),
(71,295,cs),
(71,441,o),
(184,480,o),
(259,480,c),
(265,480,l),
(265,480,o),
(265,480,o),
(265,480,c),
(270,480,l),
(345,480,o),
(448,439,o),
(448,295,cs),
(448,181,o),
(340,148,o),
(265,148,c)
);
}
);
width = 500;
}
);
unicode = 103;
},
{
glyphname = j;
kernLeft = c;
kernRight = n;
lastChange = "2023-05-22 14:31:55 +0000";
layers = (
{
layerId = "7EBE3D46-E53E-419E-A3EC-596DA2EA1E0D";
name = Regular;
shapes = (
{
alignment = -1;
pos = (574,-206);
ref = _curve_lower;
scale = (-1,1);
},
{
closed = 1;
nodes = (
(492,415,ls),
(491,468,o),
(473,508,o),
(412,508,cs),
(367,508,o),
(205,513,o),
(156,508,cs),
(136,506,o),
(131,490,o),
(137,462,cs),
(145,426,o),
(151,393,o),
(156,375,cs),
(160,359,o),
(164,349,o),
(181,349,cs),
(458,349,ls),
(477,349,o),
(493,355,o),
(493,374,cs)
);
},
{
pos = (338,181);
ref = _I_small;
},
{
alignment = -1;
pos = (288,6);
ref = _dot;
}
);
width = 600;
},
{
layerId = m002;
name = Regular;
shapes = (
{
alignment = -1;
pos = (483,-206);
ref = _curve_lower;
scale = (-1,1);
},
{
closed = 1;
nodes = (
(373,495,ls),
(373,504,o),
(370,508,o),
(359,509,cs),
(334,510,o),
(206,510,o),
(187,509,cs),
(178,508,o),
(175,505,o),
(177,499,cs),
(183,481,o),
(182,484,o),
(184,478,cs),
(188,466,o),
(190,466,o),
(207,466,cs),
(350,466,ls),
(369,466,o),
(373,470,o),
(373,484,cs)
);
},
{
pos = (218,291);
ref = _I_small;
},
{
alignment = -1;
pos = (178,6);
ref = _dot;
}
);
width = 500;
}
);
unicode = 106;
},
{
glyphname = k;
kernLeft = h;
kernRight = v;
lastChange = "2023-04-05 17:36:08 +0000";
layers = (
{
layerId = "7EBE3D46-E53E-419E-A3EC-596DA2EA1E0D";
name = Regular;
shapes = (
{
closed = 1;
nodes = (
(362,328,o),
(466,414,o),
(553,510,c),
(506,519,o),
(441,519,o),
(360,510,c),
(253,401,o),
(176,278,o),
(176,254,cs),
(176,231,o),
(246,142,o),
(360,0,c),
(428,-10,o),
(493,-9,o),
(553,0,c),
(474,83,o),
(362,178,o),
(314,256,c)
);
},
{
alignment = -1;
pos = (30,0);
ref = _I_dbh;
}
);
width = 600;
},
{
layerId = m002;
name = Regular;
shapes = (
{
closed = 1;
nodes = (
(213,342,o),
(330,426,o),
(438,510,c),
(421,511,o),
(404,512,o),
(385,510,c),
(280,429,o),
(170,342,o),
(92,254,c),
(176,160,o),
(287,75,o),
(385,0,c),
(403,-3,o),
(420,-2,o),
(438,0,c),
(339,77,o),
(224,162,o),
(130,256,c)
);
},
{
alignment = -1;
pos = (-61,0);
ref = _I_dbh;
}
);
width = 500;
}
);
unicode = 107;
},
{
glyphname = l;
kernLeft = h;
kernRight = h;
lastChange = "2023-04-05 13:35:18 +0000";
layers = (
{
layerId = "7EBE3D46-E53E-419E-A3EC-596DA2EA1E0D";
name = Regular;
shapes = (
{
closed = 1;
nodes = (
(223,244,l),
(336,244,l),
(336,451,l),
(223,451,l)
);
},
{
alignment = -1;
pos = (193,21);
ref = _I_small;
},
{
alignment = -1;
pos = (193,384);
ref = _I_small;
},
{
alignment = -1;
pos = (193,213);
ref = _I_small;
},
{
alignment = -1;
pos = (118,154);
ref = i_chengel;
},
{
alignment = -1;
pos = (-46,-297);
ref = _EF_horizontal;
},
{
alignment = -1;
pos = (174,-297);
ref = _EF_horizontal;
}
);
width = 600;
},
{
layerId = m002;
name = Regular;
shapes = (
{
closed = 1;
nodes = (
(240,244,l),
(254,244,l),
(254,451,l),
(240,451,l)
);
},
{
alignment = -1;
pos = (102,19);
ref = _I_small;
},
{
alignment = -1;
pos = (102,450);
ref = _I_small;
},
{
alignment = -1;
pos = (102,236);
ref = _I_small;
},
{
alignment = -1;
pos = (25,154);
ref = i_chengel;
},
{
alignment = -1;
pos = (-84,-359);
ref = _EF_horizontal;
},
{
alignment = -1;
pos = (106,-359);
ref = _EF_horizontal;
}
);
width = 500;
}
);
unicode = 108;
},
{
glyphname = m;
kernLeft = n;
kernRight = n;
lastChange = "2023-04-05 13:29:44 +0000";
layers = (
{
layerId = "7EBE3D46-E53E-419E-A3EC-596DA2EA1E0D";
name = Regular;
shapes = (
{
closed = 1;
nodes = (
(154,513,o),
(107,390,o),
(98,268,c),
(155,257,l),
(156,328,o),
(158,362,o),
(193,362,c),
(227,362,o),
(233,322,o),
(233,261,c),
(233,1,ls),
(356,1,l),
(356,226,l),
(354,411,o),
(347,513,o),
(233,513,c)
);
},
{
alignment = -1;
pos = (0,186);
ref = _I_small;
},
{
alignment = -1;
pos = (0,20);
ref = _I_small;
},
{
closed = 1;
nodes = (
(30,307,l),
(155,318,l),
(95,515,l),
(65,515,o),
(54,514,o),
(30,509,c)
);
},
{
closed = 1;
nodes = (
(355,513,o),
(308,390,o),
(299,268,c),
(356,257,l),
(357,328,o),
(359,362,o),
(394,362,c),
(428,362,o),
(434,322,o),
(434,261,c),
(434,1,ls),
(557,1,l),
(557,226,l),
(555,411,o),
(548,513,o),
(434,513,c)
);
}
);
width = 600;
},
{
layerId = m002;
name = Regular;
shapes = (
{
closed = 1;
nodes = (
(96,511,o),
(72,425,o),
(72,279,c),
(87,286,l),
(88,407,o),
(111,480,o),
(166,480,c),
(230,480,o),
(235,406,o),
(235,279,c),
(235,0,ls),
(262,0,l),
(262,290,l),
(260,405,o),
(260,512,o),
(175,511,c)
);
},
{
alignment = -1;
pos = (-68,186);
ref = _I_small;
},
{
alignment = -1;
pos = (-68,20);
ref = _I_small;
},
{
closed = 1;
nodes = (
(60,275,l),
(87,303,l),
(87,506,l),
(79,508,o),
(68,509,o),
(60,507,c)
);
},
{
closed = 1;
nodes = (
(270,511,o),
(246,425,o),
(246,279,c),
(261,286,l),
(262,407,o),
(285,480,o),
(340,480,c),
(404,480,o),
(409,406,o),
(409,279,c),
(409,0,ls),
(436,0,l),
(436,290,l),
(434,405,o),
(434,512,o),
(349,511,c)
);
}
);
width = 500;
}
);
unicode = 109;
},
{
glyphname = n;
kernLeft = n;
kernRight = n;
lastChange = "2023-05-18 13:33:28 +0000";
layers = (
{
layerId = "7EBE3D46-E53E-419E-A3EC-596DA2EA1E0D";
name = Regular;
shapes = (
{
alignment = -1;
pos = (21,9);
ref = _hmn;
},
{
alignment = -1;
pos = (30,186);
ref = _I_small;
},
{
alignment = -1;
pos = (30,20);
ref = _I_small;
},
{
closed = 1;
nodes = (
(60,307,l),
(185,317,l),
(130,511,l),
(120,515,o),
(74,508,o),
(60,504,c)
);
}
);
width = 600;
},
{
layerId = m002;
name = Regular;
shapes = (
{
alignment = -1;
pos = (21,9);
ref = _hmn;
},
{
alignment = -1;
pos = (-60,186);
ref = _I_small;
},
{
alignment = -1;
pos = (-60,20);
ref = _I_small;
},
{
closed = 1;
nodes = (
(68,307,l),
(95,307,l),
(95,512,l),
(89,512,o),
(76,511,o),
(68,507,c)
);
}
);
width = 500;
}
);
unicode = 110;
},
{
glyphname = r;
kernLeft = i;
kernRight = f;
lastChange = "2023-04-06 09:17:27 +0000";
layers = (
{
hints = (
{
horizontal = 1;
place = (420, 80);
place = (420, 80);
type = Stem;
}
);
layerId = "7EBE3D46-E53E-419E-A3EC-596DA2EA1E0D";
name = Regular;
shapes = (
{
closed = 1;
nodes = (
(503,367,o),
(540,406,o),
(572,483,c),
(524,507,o),
(497,516,o),
(442,516,c),
(369,516,o),
(296,447,o),
(285,377,c),
(235,265,l),
(309,189,l),
(309,281,o),
(340,351,o),
(395,353,cs),
(414,354,o),
(436,347,o),
(461,332,c)
);
},
{
closed = 1;
nodes = (
(309,415,ls),
(308,468,o),
(290,508,o),
(229,508,cs),
(184,508,o),
(132,513,o),
(83,508,cs),
(63,506,o),
(58,490,o),
(64,462,cs),
(72,426,o),
(78,393,o),
(83,375,cs),
(87,359,o),
(91,349,o),
(108,349,cs),
(275,349,ls),
(294,349,o),
(310,355,o),
(310,374,cs)
);
},
{
alignment = -1;
angle = 180;
pos = (339,307);
ref = _I_small;
},
{
alignment = -1;
angle = 180;
pos = (339,226);
ref = _I_small;
},
{
alignment = -1;
angle = 180;
pos = (339,185);
ref = _I_small;
},
{
alignment = -1;
angle = 180;
pos = (339,403);
ref = _I_small;
}
);
width = 600;
},
{
hints = (
{
horizontal = 1;
place = (420, 80);
place = (420, 80);
type = Stem;
}
);
layerId = m002;
name = Regular;
shapes = (
{
closed = 1;
nodes = (
(415,470,o),
(424,480,o),
(428,488,c),
(405,503,o),
(376,509,o),
(327,509,c),
(261,509,o),
(184,454,o),
(173,336,c),
(173,254,l),
(197,302,l),
(197,397,o),
(233,480,o),
(331,480,cs),
(368,480,o),
(393,469,o),
(407,461,c)
);
},
{
closed = 1;
nodes = (
(197,495,ls),
(197,504,o),
(194,508,o),
(183,509,cs),
(158,510,o),
(80,510,o),
(61,509,cs),
(52,508,o),
(49,505,o),
(51,499,cs),
(57,481,o),
(56,484,o),
(58,478,cs),
(62,466,o),
(64,466,o),
(81,466,cs),
(174,466,ls),
(193,466,o),
(197,470,o),
(197,484,cs)
);
},
{
alignment = -1;
angle = 180;
pos = (325,367);
ref = _I_small;
},
{
alignment = -1;
angle = 180;
pos = (325,238);
ref = _I_small;
},
{
alignment = -1;
angle = 180;
pos = (325,198);
ref = _I_small;
},
{
alignment = -1;
angle = 180;
pos = (325,475);
ref = _I_small;
}
);
width = 500;
}
);
unicode = 114;
},
{
glyphname = s;
kernLeft = e;
kernRight = e;
lastChange = "2023-04-23 06:27:56 +0000";
layers = (
{
background = {
shapes = (
{
closed = 1;
nodes = (
(158,82,o),
(124,101,o),
(85,136,c),
(43,58,l),
(81,22,o),
(122,-7,o),
(214,-7,cs),
(326,-7,o),
(397,52,o),
(397,139,cs),
(397,231,o),
(332,267,o),
(229,297,cs),
(175,313,o),
(146,329,o),
(146,367,cs),
(146,405,o),
(180,416,o),
(220,416,cs),
(262,416,o),
(286,506,o),
(217,506,cs),
(119,506,o),
(49,458,o),
(49,376,cs),
(49,257,o),
(151,233,o),
(223,212,cs),
(283,194,o),
(306,176,o),
(306,143,cs),
(306,98,o),
(255,82,o),
(211,82,cs)
);
}
);
};
layerId = "7EBE3D46-E53E-419E-A3EC-596DA2EA1E0D";
name = Regular;
shapes = (
{
closed = 1;
nodes = (
(287,289,ls),
(256,299,o),
(240,305,o),
(240,327,cs),
(240,348,o),
(255,358,o),
(290,358,cs),
(331,358,o),
(413,344,o),
(455,325,c),
(462,352,o),
(472,447,o),
(469,486,c),
(402,506,o),
(343,516,o),
(279,516,cs),
(151,516,o),
(81,444,o),
(81,371,cs),
(81,300,o),
(157,256,o),
(250,232,cs),
(321,214,o),
(325,199,o),
(326,182,cs),
(327,163,o),
(305,154,o),
(260,154,cs),
(204,154,o),
(130,177,o),
(109,189,c),
(94,140,o),
(88,71,o),
(90,36,c),
(157,1,o),
(224,-2,o),
(288,-2,cs),
(396,-2,o),
(497,48,o),
(497,140,cs),
(497,221,o),
(434,244,o),
(336,274,cs)
);
}
);
width = 600;
},
{
background = {
shapes = (
{
closed = 1;
nodes = (
(158,82,o),
(124,101,o),
(85,136,c),
(43,58,l),
(81,22,o),
(122,-7,o),
(214,-7,cs),
(326,-7,o),
(397,52,o),
(397,139,cs),
(397,231,o),
(332,267,o),
(229,297,cs),
(175,313,o),
(146,329,o),
(146,367,cs),
(146,405,o),
(180,416,o),
(220,416,cs),
(262,416,o),
(286,506,o),
(217,506,cs),
(119,506,o),
(49,458,o),
(49,376,cs),
(49,257,o),
(151,233,o),
(223,212,cs),
(283,194,o),
(306,176,o),
(306,143,cs),
(306,98,o),
(255,82,o),
(211,82,cs)
);
}
);
};
layerId = m002;
name = Regular;
shapes = (
{
closed = 1;
nodes = (
(210,282,ls),
(180,291,o),
(84,305,o),
(84,378,cs),
(84,451,o),
(141,480,o),
(242,480,cs),
(283,480,o),
(361,465,o),
(403,446,c),
(404,456,o),
(404,465,o),
(404,477,c),
(347,498,o),
(303,510,o),
(239,510,cs),
(115,510,o),
(51,457,o),
(51,377,cs),
(51,306,o),
(123,276,o),
(215,247,cs),
(297,221,o),
(405,203,o),
(405,121,cs),
(405,55,o),
(347,30,o),
(229,30,cs),
(143,30,o),
(79,60,o),
(62,71,c),
(60,59,o),
(59,49,o),
(60,39,c),
(126,10,o),
(186,0,o),
(250,0,cs),
(358,0,o),
(437,29,o),
(437,121,cs),
(437,202,o),
(359,236,o),
(281,260,cs)
);
}
);
width = 500;
}
);
unicode = 115;
},
{
glyphname = germandbls;
kernLeft = h;
kernRight = c;
lastChange = "2023-04-06 09:18:20 +0000";
layers = (
{
layerId = "7EBE3D46-E53E-419E-A3EC-596DA2EA1E0D";
name = Regular;
shapes = (
{
closed = 1;
nodes = (
(466,237,o),
(365,232,o),
(365,251,c),
(365,275,o),
(466,265,o),
(466,369,c),
(466,455,o),
(381,514,o),
(279,514,c),
(179,514,o),
(100,444,o),
(100,326,c),
(100,1,l),
(191,1,l),
(191,262,l),
(191,321,o),
(199,355,o),
(273,355,c),
(321,355,o),
(341,325,o),
(341,308,c),
(341,248,o),
(250,283,o),
(250,249,c),
(250,206,o),
(365,238,o),
(365,190,cs),
(365,168,o),
(343,159,o),
(304,157,c),
(279,157,o),
(270,158,o),
(240,162,c),
(239,2,l),
(251,0,o),
(283,-6,o),
(315,-6,c),
(425,-6,o),
(466,71,o),
(466,133,c)
);
}
);
width = 600;
},
{
layerId = m002;
name = Regular;
shapes = (
{
closed = 1;
nodes = (
(426,227,o),
(300,229,o),
(300,248,c),
(300,272,o),
(426,265,o),
(426,369,c),
(426,455,o),
(341,514,o),
(239,514,c),
(115,514,o),
(60,444,o),
(60,326,c),
(60,1,l),
(87,1,l),
(87,262,l),
(87,440,o),
(125,484,o),
(242,484,c),
(303,479,o),
(396,455,o),
(396,369,c),
(396,269,o),
(210,283,o),
(210,249,c),
(210,206,o),
(396,237,o),
(396,123,cs),
(396,31,o),
(303,28,o),
(264,26,c),
(239,26,o),
(230,27,o),
(200,31,c),
(199,2,l),
(211,0,o),
(243,-6,o),
(275,-6,c),
(385,-6,o),
(426,51,o),
(426,123,c)
);
}
);
width = 500;
}
);
unicode = 223;
},
{
glyphname = t;
kernLeft = c;
kernRight = c;
lastChange = "2023-04-05 17:32:39 +0000";
layers = (
{
hints = (
{
horizontal = 1;
place = (420, 80);
place = (420, 80);
type = Stem;
}
);
layerId = "7EBE3D46-E53E-419E-A3EC-596DA2EA1E0D";
name = Regular;
shapes = (
{
closed = 1;
nodes = (
(54,350,l),
(132,350,l),
(132,202,ls),
(132,42,o),
(258,100,o),
(258,202,cs),
(258,350,l),
(455,350,l),
(485,511,l),
(258,511,l),
(262,551,o),
(262,594,o),
(259,618,cs),
(255,648,o),
(227,670,o),
(200,640,cs),
(122,554,o),
(65,483,o),
(14,401,cs),
(1,380,o),
(26,350,o),
(50,350,cs)
);
},
{
pos = (52,5);
ref = _curve_lower;
}
);
width = 602;
},
{
hints = (
{
horizontal = 1;
place = (420, 80);
place = (420, 80);
type = Stem;
}
);
layerId = m002;
name = Regular;
shapes = (
{
closed = 1;
nodes = (
(64,480,l),
(116,480,l),
(116,342,ls),
(116,292,o),
(143,300,o),
(143,342,cs),
(143,480,l),
(356,480,l),
(356,511,l),
(143,511,l),
(144,524,o),
(144,575,o),
(142,589,cs),
(139,612,o),
(129,611,o),
(115,597,cs),
(94,577,o),
(54,530,o),
(44,508,cs),
(38,494,o),
(44,480,o),
(60,480,cs)
);
},
{
pos = (6,1);
ref = _curve_lower;
}
);
width = 500;
}
);
unicode = 116;
},
{
glyphname = u;
kernLeft = n;
kernRight = n;
lastChange = "2023-05-18 13:33:44 +0000";
layers = (
{
layerId = "7EBE3D46-E53E-419E-A3EC-596DA2EA1E0D";
name = Regular;
shapes = (
{
alignment = -1;
angle = 180;
pos = (561,501);
ref = _hmn;
},
{
alignment = -1;
angle = 180;
pos = (552,325);
ref = _I_small;
},
{
alignment = -1;
angle = 180;
pos = (552,491);
ref = _I_small;
},
{
closed = 1;
nodes = (
(522,204,l),
(397,204,l),
(447,-3,l),
(522,-3,l)
);
}
);
width = 600;
},
{
layerId = m002;
name = Regular;
shapes = (
{
alignment = -1;
angle = 180;
pos = (475,501);
ref = _hmn;
},
{
alignment = -1;
angle = 180;
pos = (557,323);
ref = _I_small;
},
{
alignment = -1;
angle = 180;
pos = (557,489);
ref = _I_small;
},
{
closed = 1;
nodes = (
(429,216,l),
(402,216,l),
(402,-1,l),
(429,-1,l)
);
}
);
width = 500;
}
);
unicode = 117;
},
{
glyphname = w;
kernLeft = v;
kernRight = v;
lastChange = "2023-04-23 06:38:23 +0000";
layers = (
{
layerId = "7EBE3D46-E53E-419E-A3EC-596DA2EA1E0D";
name = Regular;
shapes = (
{
closed = 1;
nodes = (
(241,0,o),
(259,24,o),
(267,71,cs),
(297,248,l),
(318,71,ls),
(324,23,o),
(351,0,o),
(389,0,cs),
(433,0,o),
(459,29,o),
(466,71,cs),
(543,510,l),
(403,510,l),
(389,296,l),
(355,463,ls),
(350,488,o),
(329,514,o),
(298,514,c),
(297,514,ls),
(257,514,o),
(237,489,o),
(233,463,cs),
(208,296,l),
(200,510,l),
(60,510,l),
(126,71,ls),
(132,29,o),
(156,0,o),
(199,0,cs)
);
}
);
width = 600;
},
{
layerId = m002;
name = Regular;
shapes = (
{
closed = 1;
nodes = (
(162,0,o),
(165,16,o),
(169,31,c),
(252,470,l),
(346,31,l),
(351,15,o),
(355,0,o),
(377,0,cs),
(394,0,o),
(402,24,o),
(404,39,cs),
(473,510,l),
(443,510,l),
(374,43,l),
(280,478,l),
(274,493,o),
(273,509,o),
(254,509,cs),
(253,509,l),
(234,509,o),
(232,493,o),
(226,478,c),
(142,41,l),
(56,510,l),
(30,510,l),
(112,31,ls),
(115,16,o),
(122,0,o),
(141,0,cs)
);
}
);
width = 500;
}
);
unicode = 119;
},
{
glyphname = y;
kernLeft = v;
kernRight = v;
lastChange = "2023-04-05 13:36:39 +0000";
layers = (
{
layerId = "7EBE3D46-E53E-419E-A3EC-596DA2EA1E0D";
name = Regular;
shapes = (
{
closed = 1;
nodes = (
(404,511,l),
(322,214,l),
(200,510,l),
(30,510,l),
(266,25,l),
(260,12,ls),
(245,-20,o),
(185,-38,o),
(143,-24,c),
(128,-85,o),
(126,-146,o),
(132,-199,c),
(259,-211,o),
(318,-127,o),
(376,30,cs),
(554,511,l)
);
}
);
width = 600;
},
{
layerId = m002;
name = Regular;
shapes = (
{
closed = 1;
nodes = (
(460,510,l),
(281,38,l),
(48,510,l),
(10,510,l),
(266,0,l),
(242,-56,ls),
(207,-137,o),
(162,-162,o),
(76,-150,c),
(74,-158,o),
(73,-178,o),
(74,-189,c),
(185,-204,o),
(241,-159,o),
(289,-31,cs),
(494,510,l)
);
}
);
width = 500;
}
);
unicode = 121;
},
{
glyphname = z;
kernLeft = c;
kernRight = c;
lastChange = "2023-04-05 13:36:07 +0000";
layers = (
{
layerId = "7EBE3D46-E53E-419E-A3EC-596DA2EA1E0D";
name = Regular;
shapes = (
{
pos = (43,0);
ref = z___;
},
{
closed = 1;
nodes = (
(309,385,o),
(320,397,o),
(320,411,cs),
(320,425,o),
(309,437,o),
(296,437,cs),
(283,437,o),
(272,425,o),
(272,411,cs),
(272,397,o),
(283,385,o),
(296,385,cs)
);
},
{
angle = 180;
pos = (547,509);
ref = z___;
}
);
width = 600;
},
{
layerId = m002;
name = Regular;
shapes = (
{
pos = (3,0);
ref = z___;
},
{
closed = 1;
nodes = (
(443,462,o),
(450,469,o),
(450,477,cs),
(450,485,o),
(443,492,o),
(436,492,cs),
(428,492,o),
(422,485,o),
(422,477,cs),
(422,469,o),
(428,462,o),
(436,462,cs)
);
},
{
angle = 180;
pos = (507,509);
ref = z___;
}
);
width = 500;
}
);
unicode = 122;
},
{
glyphname = i_chengel;
lastChange = "2023-04-05 18:29:58 +0000";
layers = (
{
layerId = "7EBE3D46-E53E-419E-A3EC-596DA2EA1E0D";
shapes = (
{
closed = 1;
nodes = (
(231,416,ls),
(230,469,o),
(212,509,o),
(151,509,cs),
(106,509,o),
(24,514,o),
(-25,509,cs),
(-45,507,o),
(-50,491,o),
(-44,463,cs),
(-36,427,o),
(-30,394,o),
(-25,376,cs),
(-21,360,o),
(-17,350,o),
(0,350,cs),
(197,350,ls),
(216,350,o),
(232,356,o),
(232,375,cs)
);
}
);
width = 600;
},
{
layerId = m002;
shapes = (
{
closed = 1;
nodes = (
(232,496,ls),
(232,505,o),
(229,509,o),
(218,510,cs),
(193,511,o),
(65,511,o),
(46,510,cs),
(37,509,o),
(34,506,o),
(36,500,cs),
(42,482,o),
(41,485,o),
(43,479,cs),
(47,467,o),
(49,467,o),
(66,467,cs),
(209,467,ls),
(228,467,o),
(232,471,o),
(232,485,cs)
);
}
);
width = 500;
}
);
},
{
glyphname = z___;
lastChange = "2023-05-24 14:26:42 +0000";
layers = (
{
layerId = "7EBE3D46-E53E-419E-A3EC-596DA2EA1E0D";
shapes = (
{
closed = 1;
nodes = (
(381,518,o),
(93,516,o),
(17,504,c),
(23,458,o),
(25,409,o),
(37,346,c),
(99,348,o),
(242,349,o),
(304,351,c),
(177,219,l),
(199,113,l),
(288,219,o),
(426,337,o),
(491,462,cs),
(502,484,o),
(487,500,o),
(457,505,cs)
);
}
);
width = 600;
},
{
layerId = m002;
shapes = (
{
closed = 1;
nodes = (
(420,506,o),
(268,519,o),
(47,504,c),
(49,496,o),
(52,484,o),
(54,476,c),
(255,484,o),
(365,480,o),
(423,472,c),
(65,18,l),
(60,13,l),
(149,119,o),
(346,337,o),
(451,462,cs),
(467,481,o),
(455,500,o),
(425,505,cs)
);
}
);
width = 500;
}
);
},
{
glyphname = "Zhe-cy";
lastChange = "2023-04-06 09:23:32 +0000";
layers = (
{
layerId = "7EBE3D46-E53E-419E-A3EC-596DA2EA1E0D";
name = Regular;
shapes = (
{
alignment = -1;
pos = (401,0);
ref = _I;
scale = (-1,1);
},
{
closed = 1;
nodes = (
(129,248,o),
(59,86,o),
(10,3,c),
(73,0,o),
(108,-1,o),
(173,3,c),
(237,96,o),
(285,301,o),
(285,324,cs),
(285,348,o),
(229,553,o),
(175,659,c),
(102,661,o),
(78,661,o),
(23,659,c),
(70,563,o),
(129,398,o),
(177,326,c)
);
},
{
alignment = -1;
pos = (217,0);
ref = _I;
},
{
closed = 1;
nodes = (
(487,398,o),
(546,563,o),
(593,659,c),
(538,661,o),
(514,661,o),
(441,659,c),
(387,553,o),
(331,348,o),
(331,324,cs),
(331,301,o),
(379,96,o),
(443,3,c),
(508,-1,o),
(543,0,o),
(606,3,c),
(557,86,o),
(487,248,o),
(439,326,c)
);
}
);
width = 600;
},
{
layerId = m002;
name = Regular;
shapes = (
{
alignment = -1;
pos = (342,0);
ref = _I;
scale = (-1,1);
},
{
closed = 1;
nodes = (
(160,208,o),
(95,116,o),
(13,3,c),
(64,0,o),
(32,-1,o),
(56,3,c),
(158,154,o),
(232,301,o),
(232,324,cs),
(232,348,o),
(158,503,o),
(63,629,c),
(28,631,o),
(57,631,o),
(18,629,c),
(102,533,o),
(140,468,o),
(214,326,c)
);
},
{
alignment = -1;
pos = (144,0);
ref = _I;
},
{
closed = 1;
nodes = (
(344,468,o),
(382,533,o),
(466,629,c),
(427,631,o),
(456,631,o),
(421,629,c),
(326,503,o),
(252,348,o),
(252,324,cs),
(252,301,o),
(326,154,o),
(428,3,c),
(452,-1,o),
(420,0,o),
(471,3,c),
(389,116,o),
(324,208,o),
(270,326,c)
);
}
);
width = 500;
}
);
unicode = 1046;
},
{
glyphname = "U-cy";
kernRight = V;
lastChange = "2023-04-06 11:23:09 +0000";
layers = (
{
layerId = "7EBE3D46-E53E-419E-A3EC-596DA2EA1E0D";
name = Regular;
shapes = (
{
closed = 1;
nodes = (
(424,660,l),
(307,385,l),
(190,660,l),
(20,660,l),
(238,242,l),
(219,198,ls),
(206,168,o),
(143,144,o),
(101,158,c),
(105,99,o),
(119,33,o),
(130,-3,c),
(187,-5,o),
(255,2,o),
(318,124,cs),
(594,660,l)
);
}
);
width = 600;
},
{
layerId = m002;
name = Regular;
shapes = (
{
closed = 1;
nodes = (
(454,628,l),
(244,181,l),
(44,628,l),
(10,628,l),
(229,141,l),
(205,97,ls),
(168,29,o),
(94,21,o),
(52,35,c),
(53,15,o),
(52,8,o),
(50,-3,c),
(127,-15,o),
(201,-3,o),
(258,124,cs),
(484,628,l)
);
}
);
width = 500;
}
);
unicode = 1059;
},
{
glyphname = "Ef-cy";
lastChange = "2023-04-06 11:23:18 +0000";
layers = (
{
anchors = (
{
name = tailq;
pos = (338,62);
}
);
layerId = "7EBE3D46-E53E-419E-A3EC-596DA2EA1E0D";
name = Regular;
shapes = (
{
angle = 180;
pos = (616,728);
ref = _O;
},
{
pos = (-10,728);
ref = _O;
scale = (1,-1);
},
{
pos = (-10,-70);
ref = _O;
},
{
pos = (616,-70);
ref = _O;
scale = (-1,1);
},
{
closed = 1;
nodes = (
(243,-64,l),
(365,-64,l),
(365,723,l),
(243,723,l)
);
}
);
width = 600;
},
{
anchors = (
{
name = tailq;
pos = (350,62);
}
);
layerId = m002;
name = Regular;
shapes = (
{
angle = 180;
pos = (568,728);
ref = _O;
},
{
pos = (-68,728);
ref = _O;
scale = (1,-1);
},
{
pos = (-68,-90);
ref = _O;
},
{
pos = (568,-90);
ref = _O;
scale = (-1,1);
},
{
closed = 1;
nodes = (
(234,-75,l),
(266,-75,l),
(266,712,l),
(234,712,l)
);
}
);
width = 500;
}
);
unicode = 1060;
},
{
glyphname = "Iu-cy";
lastChange = "2023-04-06 11:24:35 +0000";
layers = (
{
layerId = "7EBE3D46-E53E-419E-A3EC-596DA2EA1E0D";
name = Regular;
shapes = (
{
alignment = -1;
pos = (-10,0);
ref = I;
},
{
alignment = -1;
pos = (553,-2);
ref = O;
},
{
closed = 1;
nodes = (
(325,270,l),
(607,270,l),
(607,391,l),
(325,391,l)
);
}
);
width = 1200;
},
{
layerId = m002;
name = Regular;
shapes = (
{
alignment = -1;
pos = (-30,0);
ref = I;
},
{
alignment = -1;
pos = (493,-2);
ref = O;
},
{
closed = 1;
nodes = (
(226,314,l),
(528,314,l),
(528,348,l),
(226,348,l)
);
}
);
width = 1000;
}
);
unicode = 1070;
},
{
export = 0;
glyphname = "De-cy";
kernLeft = A;
lastChange = "2023-04-06 11:26:17 +0000";
layers = (
{
background = {
shapes = (
{
closed = 1;
nodes = (
(253,516,l),
(110,516,o),
(36,405,o),
(34,247,c),
(147,246,l),
(147,332,o),
(201,360,o),
(253,360,c)
);
}
);
};
layerId = "7EBE3D46-E53E-419E-A3EC-596DA2EA1E0D";
name = Regular;
shapes = (
{
pos = (357,-1);
ref = _I;
},
{
pos = (-71,-293);
ref = _EF_horizontal;
},
{
closed = 1;
nodes = (
(343,499,l),
(505,499,l),
(505,659,l),
(343,659,l)
);
},
{
pos = (108,-293);
ref = _EF_horizontal;
},
{
pos = (714,19);
ref = _D_cyr;
scale = (-1,1);
},
{
pos = (-41,19);
ref = _D_cyr;
},
{
pos = (164,-293);
ref = _EF_horizontal;
},
{
closed = 1;
nodes = (
(344,659,l),
(201,659,o),
(148,549,o),
(146,391,c),
(259,390,l),
(259,476,o),
(292,499,o),
(344,499,c)
);
},
{
closed = 1;
nodes = (
(61,2,l),
(204,2,o),
(257,113,o),
(259,271,c),
(146,272,l),
(146,186,o),
(113,160,o),
(61,160,c)
);
},
{
closed = 1;
nodes = (
(146,269,l),
(259,269,l),
(259,397,l),
(146,397,l)
);
}
);
width = 600;
},
{
background = {
shapes = (
{
closed = 1;
nodes = (
(253,516,l),
(110,516,o),
(36,405,o),
(34,247,c),
(147,246,l),
(147,332,o),
(201,360,o),
(253,360,c)
);
}
);
};
layerId = m002;
name = Regular;
shapes = (
{
pos = (299,-1);
ref = _I;
},
{
pos = (-81,-360);
ref = _EF_horizontal;
},
{
closed = 1;
nodes = (
(277,599,l),
(399,599,l),
(399,629,l),
(277,629,l)
);
},
{
pos = (138,-360);
ref = _EF_horizontal;
},
{
pos = (664,19);
ref = _D_cyr;
scale = (-1,1);
},
{
pos = (-131,19);
ref = _D_cyr;
},
{
pos = (104,-360);
ref = _EF_horizontal;
},
{
closed = 1;
nodes = (
(302,629,l),
(199,629,o),
(149,549,o),
(147,391,c),
(182,390,l),
(182,476,o),
(190,599,o),
(302,599,c)
);
},
{
closed = 1;
nodes = (
(40,-1,l),
(93,-1,o),
(179,61,o),
(181,159,c),
(146,160,l),
(146,74,o),
(92,25,o),
(40,25,c)
);
},
{
closed = 1;
nodes = (
(146,159,l),
(181,159,l),
(182,395,l),
(147,395,l)
);
}
);
width = 500;
}
);
unicode = 1044;
},
{
glyphname = "be-cy";
kernLeft = e;
kernRight = e;
lastChange = "2023-04-06 09:27:34 +0000";
layers = (
{
layerId = "7EBE3D46-E53E-419E-A3EC-596DA2EA1E0D";
name = Regular;
shapes = (
{
closed = 1;
nodes = (
(181.961,404.232,l),
(192.003,513.657,o),
(257,607,o),
(472,560,c),
(482,717,l),
(131,771,o),
(61,557,o),
(61,355,c),
(61,328,o),
(60,261.224,o),
(60,242,c),
(69.426,222.033,l),
(138,216,l)
);
},
{
closed = 1;
nodes = (
(341,370,l),
(333,516,l),
(225,516,o),
(121,426,o),
(121,277,c),
(121,230,o),
(173,153,o),
(173,250,c),
(173,318,o),
(270,355,o),
(325,355,c),
(327,355,o),
(329,355,o),
(331,355,c)
);
},
{
angle = 180;
pos = (582,505);
ref = _o_curve;
},
{
pos = (76,505);
ref = _o_curve;
scale = (1,-1);
},
{
pos = (582,0);
ref = _o_curve;
scale = (-1,1);
}
);
width = 600;
},
{
layerId = m002;
name = Regular;
shapes = (
{
closed = 1;
nodes = (
(92,414,l),
(102,544,o),
(127,737,o),
(432,680,c),
(442.344,716.988,l),
(110.66,771.298,o),
(61,567,o),
(61,365,c),
(61,338,o),
(60,271,o),
(60,252,c),
(69,232,l),
(90,216,l)
);
},
{
closed = 1;
nodes = (
(289,480,l),
(283,503,l),
(195,503,o),
(81,423,o),
(81,274,c),
(81,227,o),
(90,150,o),
(90,247,c),
(90,415,o),
(219,473,o),
(274,473,c),
(276,473,o),
(278,473,o),
(280,473,c)
);
},
{
angle = 180;
pos = (532,505);
ref = _o_curve;
},
{
pos = (26,505);
ref = _o_curve;
scale = (1,-1);
},
{
pos = (532,0);
ref = _o_curve;
scale = (-1,1);
}
);
width = 500;
}
);
unicode = 1073;
},
{
glyphname = "de-cy";
kernLeft = e;
kernRight = n;
lastChange = "2023-04-23 06:38:53 +0000";
layers = (
{
layerId = "7EBE3D46-E53E-419E-A3EC-596DA2EA1E0D";
name = Regular;
shapes = (
{
alignment = -1;
angle = 180;
pos = (561,507);
ref = _curve_b;
},
{
closed = 1;
nodes = (
(175,-198,o),
(256,-205,o),
(298,-205,c),
(427,-205,o),
(534,-145,o),
(534,11,c),
(534,202,l),
(409,202,l),
(409,45,l),
(409,-15,o),
(357,-43,o),
(282,-44,c),
(243,-45,o),
(194,-34,o),
(156,-16,c),
(133,-80,o),
(130,-92,o),
(115,-169,c)
);
}
);
width = 600;
},
{
layerId = m002;
name = Regular;
shapes = (
{
angle = 180;
pos = (493,510);
ref = _curve_b;
},
{
closed = 1;
nodes = (
(119,-202,o),
(189,-204,o),
(231,-204,cs),
(323,-204,o),
(438,-169,o),
(438,19,c),
(438,68,l),
(412,68,l),
(412,41,l),
(412,-128,o),
(353,-164,o),
(231,-164,cs),
(192,-164,o),
(112,-155,o),
(44,-107,c),
(38,-118,o),
(32,-130,o),
(29,-143,c)
);
}
);
width = 500;
}
);
unicode = 1076;
},
{
glyphname = "zhe-cy";
kernLeft = c;
kernRight = c;
lastChange = "2023-05-29 20:19:51 +0000";
layers = (
{
layerId = "7EBE3D46-E53E-419E-A3EC-596DA2EA1E0D";
name = Regular;
shapes = (
{
closed = 1;
nodes = (
(109,178,o),
(77,83,o),
(18,0,c),
(78,-9,o),
(113,-10,o),
(181,0,c),
(225,142,o),
(245,231,o),
(245,254,cs),
(245,278,o),
(208,401,o),
(181,510,c),
(100,519,o),
(65,519,o),
(18,510,c),
(75,414,o),
(109,328,o),
(157,256,c)
);
},
{
pos = (390,0);
ref = _I_dbh;
scale = (-1,1);
},
{
alignment = -1;
pos = (207,0);
ref = _I_dbh;
},
{
closed = 1;
nodes = (
(497,328,o),
(531,414,o),
(598,510,c),
(551,519,o),
(506,519,o),
(425,510,c),
(388,381,o),
(361,278,o),
(361,254,cs),
(361,231,o),
(381,142,o),
(425,0,c),
(493,-10,o),
(538,-9,o),
(598,0,c),
(539,83,o),
(497,178,o),
(449,256,c)
);
}
);
width = 600;
},
{
layerId = m002;
name = Regular;
shapes = (
{
closed = 1;
nodes = (
(108,162,o),
(93,77,o),
(24,0,c),
(42,-2,o),
(39,-3,o),
(57,0,c),
(125,75,o),
(146,160,o),
(230,254,c),
(152,342,o),
(142,409,o),
(57,510,c),
(38,512,o),
(41,511,o),
(24,510,c),
(112,406,o),
(119,342,o),
(202,256,c)
);
},
{
pos = (382,0);
ref = _I_dbh;
scale = (-1,1);
},
{
alignment = -1;
pos = (98,0);
ref = _I_dbh;
},
{
closed = 1;
nodes = (
(363,342,o),
(370,406,o),
(458,510,c),
(441,511,o),
(444,512,o),
(425,510,c),
(340,409,o),
(330,342,o),
(252,254,c),
(336,160,o),
(357,75,o),
(425,0,c),
(443,-3,o),
(440,-2,o),
(458,0,c),
(389,77,o),
(374,162,o),
(280,256,c)
);
}
);
width = 500;
}
);
unicode = 1078;
},
{
glyphname = "che-cy";
kernLeft = e;
kernRight = n;
lastChange = "2023-04-06 10:24:22 +0000";
layers = (
{
layerId = "7EBE3D46-E53E-419E-A3EC-596DA2EA1E0D";
name = Regular;
shapes = (
{
closed = 1;
nodes = (
(173,437,o),
(60,429,o),
(60,315,c),
(60,190,o),
(128,132,o),
(270,142,c),
(432,154,l),
(410,275,l),
(287,264,l),
(202,256,o),
(173,291,o),
(173,346,c)
);
},
{
pos = (365,20);
ref = _I_small;
},
{
pos = (365,165);
ref = _I_small;
},
{
pos = (365,309);
ref = _I_small;
},
{
pos = (30,312);
ref = _I_small;
}
);
width = 600;
},
{
layerId = m002;
name = Regular;
shapes = (
{
closed = 1;
nodes = (
(67,406,o),
(40,413,o),
(40,299,c),
(40,258,o),
(68,198,o),
(184,205,cs),
(359,216,l),
(337,243,l),
(181,233,l),
(96,225,o),
(67,260,o),
(67,315,c)
);
},
{
pos = (207,20);
ref = _I_small;
},
{
pos = (207,165);
ref = _I_small;
},
{
pos = (207,309);
ref = _I_small;
},
{
pos = (-88,312);
ref = _I_small;
}
);
width = 500;
}
);
unicode = 1095;
},
{
glyphname = "softsign-cy";
kernLeft = n;
lastChange = "2023-05-29 20:17:09 +0000";
layers = (
{
layerId = "7EBE3D46-E53E-419E-A3EC-596DA2EA1E0D";
name = Regular;
shapes = (
{
alignment = -1;
angle = 180;
pos = (292,510);
ref = "_i-dotless";
},
{
closed = 1;
nodes = (
(532,202,cs),
(532,307,o),
(455,359,o),
(328,359,cs),
(289,359,o),
(251,359,o),
(217,358,c),
(222,273,l),
(264,274,o),
(283,274,o),
(329,272,cs),
(373,270,o),
(420,254,o),
(420,199,cs),
(420,144,o),
(373,128,o),
(329,126,cs),
(283,124,o),
(264,124,o),
(222,125,c),
(217,0,l),
(328,-1,ls),
(459,-2,o),
(532,96,o)
);
}
);
width = 600;
},
{
layerId = m002;
name = Regular;
shapes = (
{
alignment = -1;
angle = 180;
pos = (272,510);
ref = "_i-dotless";
},
{
closed = 1;
nodes = (
(422,202,cs),
(422,307,o),
(345,359,o),
(218,359,cs),
(179,359,o),
(141,359,o),
(107,358,c),
(112,332,l),
(154,333,o),
(173,332,o),
(219,331,cs),
(333,329,o),
(390,274,o),
(390,199,cs),
(390,114,o),
(333,25,o),
(219,23,cs),
(173,22,o),
(154,21,o),
(112,22,c),
(107,0,l),
(218,-1,ls),
(349,-2,o),
(422,96,o)
);
}
);
width = 500;
}
);
unicode = 1100;
},
{
glyphname = "hardsign-cy";
lastChange = "2023-05-29 20:20:47 +0000";
layers = (
{
layerId = "7EBE3D46-E53E-419E-A3EC-596DA2EA1E0D";
name = Regular;
shapes = (
{
closed = 1;
nodes = (
(49,350,l),
(201,350,l),
(201,510,l),
(49,510,l)
);
},
{
pos = (47,1);
ref = "softsign-cy";
}
);
width = 600;
},
{
layerId = m002;
name = Regular;
shapes = (
{
closed = 1;
nodes = (
(9,480,l),
(131,480,l),
(131,510,l),
(9,510,l)
);
},
{
pos = (27,1);
ref = "softsign-cy";
}
);
width = 500;
}
);
unicode = 1098;
},
{
glyphname = "iu-cy";
kernLeft = c;
kernRight = e;
lastChange = "2023-04-06 11:28:49 +0000";
layers = (
{
layerId = "7EBE3D46-E53E-419E-A3EC-596DA2EA1E0D";
name = Regular;
shapes = (
{
alignment = -1;
ref = dotlessi;
},
{
alignment = -1;
pos = (504,0);
ref = o;
},
{
closed = 1;
nodes = (
(336,197,l),
(588,197,l),
(588,318,l),
(336,318,l)
);
}
);
width = 1200;
},
{
layerId = m002;
name = Regular;
shapes = (
{
alignment = -1;
pos = (-56,0);
ref = dotlessi;
},
{
alignment = -1;
pos = (428,0);
ref = o;
},
{
closed = 1;
nodes = (
(207,236,l),
(469,236,l),
(469,270,l),
(207,270,l)
);
}
);
width = 1000;
}
);
unicode = 1102;
},
{
glyphname = "ia-cy";
kernLeft = e;
kernRight = n;
lastChange = "2023-04-06 11:28:55 +0000";
layers = (
{
layerId = "7EBE3D46-E53E-419E-A3EC-596DA2EA1E0D";
name = Regular;
shapes = (
{
closed = 1;
nodes = (
(254,117,l),
(279,161,o),
(335,151,o),
(368,153,c),
(376,154,o),
(440,210,o),
(378,225,c),
(364,229,o),
(253,211,o),
(229,211,c),
(157,204,o),
(125,147,o),
(79,43,c),
(60,0,l),
(192,0,l)
);
},
{
angle = 180;
pos = (593,508);
ref = "softsign-cy";
}
);
width = 600;
},
{
layerId = m002;
name = Regular;
shapes = (
{
closed = 1;
nodes = (
(142,113,ls),
(168,155,o),
(214,147,o),
(246,149,c),
(255,150,o),
(334,155,o),
(272,170,c),
(258,174,o),
(213,170,o),
(209,170,c),
(137,163,o),
(140,157,o),
(86,72,cs),
(40,0,l),
(72,0,l)
);
},
{
angle = 180;
pos = (498,508);
ref = "softsign-cy";
}
);
width = 500;
}
);
unicode = 1103;
},
{
glyphname = zero;
lastChange = "2023-04-23 06:58:38 +0000";
layers = (
{
layerId = "7EBE3D46-E53E-419E-A3EC-596DA2EA1E0D";
name = Regular;
shapes = (
{
closed = 1;
nodes = (
(350,7,l),
(365,7,l),
(350,127,l)
);
},
{
angle = 180;
pos = (542,505);
ref = _o_curve;
},
{
pos = (36,505);
ref = _o_curve;
scale = (1,-1);
},
{
pos = (542,160);
ref = _o_curve;
scale = (-1,1);
},
{
pos = (36,160);
ref = _o_curve;
},
{
closed = 1;
nodes = (
(20,255,l),
(133,255,l),
(133,412,l),
(20,412,l)
);
},
{
closed = 1;
nodes = (
(445,254,l),
(558,254,l),
(558,411,l),
(445,411,l)
);
}
);
width = 600;
},
{
layerId = m002;
name = Regular;
shapes = (
{
closed = 1;
nodes = (
(350,17,l),
(365,17,l),
(363,30,l)
);
},
{
angle = 180;
pos = (502,505);
ref = _o_curve;
},
{
pos = (-4,505);
ref = _o_curve;
scale = (1,-1);
},
{
pos = (502,129);
ref = _o_curve;
scale = (-1,1);
},
{
pos = (-4,129);
ref = _o_curve;
},
{
closed = 1;
nodes = (
(30,255,l),
(60,255,l),
(60,382,l),
(30,382,l)
);
},
{
closed = 1;
nodes = (
(438,254,l),
(468,254,l),
(468,381,l),
(438,381,l)
);
}
);
width = 500;
}
);
unicode = 48;
},
{
glyphname = one;
lastChange = "2023-04-06 10:29:54 +0000";
layers = (
{
layerId = "7EBE3D46-E53E-419E-A3EC-596DA2EA1E0D";
name = Regular;
shapes = (
{
pos = (229,19);
ref = _I_small;
},
{
pos = (229,168);
ref = _I_small;
},
{
pos = (229,331);
ref = _I_small;
},
{
pos = (229,472);
ref = _I_small;
},
{
closed = 1;
nodes = (
(74,451,o),
(78,404,o),
(83,347,c),
(195,347,o),
(385,502,o),
(385,661,c),
(385,662,o),
(260,661,o),
(260,660,c),
(260,569,o),
(143,532,o),
(83,512,c)
);
},
{
alignment = -1;
pos = (176,-292);
ref = _EF_horizontal;
},
{
alignment = -1;
pos = (-24,-292);
ref = _EF_horizontal;
}
);
width = 600;
},
{
layerId = m002;
name = Regular;
shapes = (
{
pos = (119,19);
ref = _I_small;
},
{
pos = (119,168);
ref = _I_small;
},
{
pos = (119,331);
ref = _I_small;
},
{
pos = (119,432);
ref = _I_small;
},
{
closed = 1;
nodes = (
(26,350,o),
(26,341,o),
(23,327,c),
(125,359,o),
(224,472,o),
(274,631,c),
(274,632,o),
(247,631,o),
(247,630,c),
(197,449,o),
(85,377,o),
(25,357,c)
);
},
{
alignment = -1;
pos = (80,-359);
ref = _EF_horizontal;
},
{
alignment = -1;
pos = (-65,-359);
ref = _EF_horizontal;
}
);
width = 500;
}
);
unicode = 49;
},
{
glyphname = two;
lastChange = "2023-04-05 05:53:40 +0000";
layers = (
{
layerId = "7EBE3D46-E53E-419E-A3EC-596DA2EA1E0D";
name = Regular;
shapes = (
{
closed = 1;
nodes = (
(306,352,o),
(235,277,o),
(177,216,cs),
(134,171,o),
(100,129,o),
(62,85,cs),
(50,72,o),
(24,46,o),
(24,27,cs),
(24,4,o),
(53,0,o),
(76,0,cs),
(77,0,l),
(181,0,l),
(208,30,o),
(155,56,o),
(186,88,c),
(286,190,o),
(438,303,o),
(438,440,cs),
(438,577,o),
(360,668,o),
(214,668,cs),
(166,668,o),
(86,668,o),
(27,624,c),
(31,574,o),
(40,525,o),
(52,479,c),
(91,499,o),
(139,508,o),
(200,508,cs),
(273,508,o),
(306,480,o),
(306,416,cs)
);
},
{
angle = 180;
pos = (488,452);
ref = _EF_horizontal;
},
{
angle = 180;
pos = (576,452);
ref = _EF_horizontal;
}
);
width = 600;
},
{
layerId = m002;
name = Regular;
shapes = (
{
closed = 1;
nodes = (
(406,336,o),
(332,262,o),
(265,210,cs),
(215,171,o),
(175,137,o),
(125,100,cs),
(110,89,o),
(34,36,o),
(34,17,cs),
(34,4,o),
(43,0,o),
(56,0,cs),
(77,0,l),
(63,13,l),
(90,43,o),
(135,69,o),
(169,95,cs),
(315,205,o),
(438,293,o),
(438,450,cs),
(438,567,o),
(350,636,o),
(214,636,cs),
(166,636,o),
(96,618,o),
(37,574,c),
(39,562,o),
(40,551,o),
(42,539,c),
(105,589,o),
(155,604,o),
(216,604,cs),
(333,604,o),
(406,547,o),
(406,453,cs)
);
},
{
angle = 180;
pos = (413,387);
ref = _EF_horizontal;
},
{
angle = 180;
pos = (566,387);
ref = _EF_horizontal;
}
);
width = 500;
}
);
unicode = 50;
},
{
glyphname = five;
lastChange = "2023-04-06 10:30:05 +0000";
layers = (
{
layerId = "7EBE3D46-E53E-419E-A3EC-596DA2EA1E0D";
name = Regular;
shapes = (
{
closed = 1;
nodes = (
(120,11,o),
(200,-2,o),
(248,-2,cs),
(399,-2,o),
(482,78,o),
(482,239,cs),
(482,408,o),
(319,438,o),
(187,418,c),
(205,504,l),
(459,503,l),
(489,661,l),
(142,660,l),
(91,383,ls),
(83,339,o),
(111,319,o),
(134,322,cs),
(249,339,o),
(360,321,o),
(360,239,cs),
(360,136,o),
(192,148,o),
(86,202,c),
(61,55,l)
);
}
);
width = 600;
},
{
layerId = m002;
name = Regular;
shapes = (
{
closed = 1;
nodes = (
(90,11,o),
(170,-2,o),
(218,-2,cs),
(369,-2,o),
(452,78,o),
(452,210,cs),
(452,408,o),
(238,408,o),
(106,388,c),
(152,601,l),
(411,600,l),
(418,631,l),
(132,630,l),
(81,383,ls),
(78,368,o),
(81,359,o),
(104,362,cs),
(217,379,o),
(425,384,o),
(425,209,cs),
(425,-13,o),
(150,0,o),
(35,78,c),
(31,55,l)
);
}
);
width = 500;
}
);
unicode = 53;
},
{
glyphname = six;
lastChange = "2023-04-06 10:30:08 +0000";
layers = (
{
layerId = "7EBE3D46-E53E-419E-A3EC-596DA2EA1E0D";
name = Regular;
shapes = (
{
closed = 1;
nodes = (
(220,146,o),
(184,184,o),
(184,244,cs),
(184,300,o),
(220,342,o),
(291,342,cs),
(350,342,o),
(394,305,o),
(394,241,cs),
(394,183,o),
(347,146,o),
(289,146,cs)
);
},
{
closed = 1;
nodes = (
(70,78,o),
(143,-11,o),
(299,-11,cs),
(460,-11,o),
(508,125,o),
(508,218,cs),
(508,336,o),
(439,441,o),
(313,441,cs),
(247,441,o),
(206,422,o),
(181,394,c),
(188,452,o),
(223,507,o),
(318,507,cs),
(364,507,o),
(415,492,o),
(445,475,c),
(456,528,o),
(466,585,o),
(470,635,c),
(439,653,o),
(378,668,o),
(337,668,cs),
(147,668,o),
(70,527,o),
(70,288,cs)
);
}
);
width = 600;
},
{
layerId = m002;
name = Regular;
shapes = (
{
closed = 1;
nodes = (
(129,23,o),
(70,134,o),
(70,243,cs),
(70,321,o),
(128,417,o),
(263,417,cs),
(367,417,o),
(439,352,o),
(439,207,cs),
(439,72,o),
(328,23,o),
(245,23,cs)
);
},
{
closed = 1;
nodes = (
(41,145,o),
(93,-4,o),
(239,-4,cs),
(420,-4,o),
(468,122,o),
(468,208,cs),
(468,336,o),
(406,441,o),
(265,441,cs),
(186,441,o),
(92,424,o),
(59,298,c),
(59,480,o),
(113,610,o),
(252,610,cs),
(327,610,o),
(383,587,o),
(413,570,c),
(413,580,o),
(412,589,o),
(416,602,c),
(375,620,o),
(339,638,o),
(262,638,cs),
(90,638,o),
(41,477,o),
(41,298,cs)
);
}
);
width = 500;
}
);
unicode = 54;
},
{
glyphname = seven;
lastChange = "2023-04-05 05:53:40 +0000";
layers = (
{
layerId = "7EBE3D46-E53E-419E-A3EC-596DA2EA1E0D";
name = Regular;
shapes = (
{
alignment = -1;
pos = (82,208);
ref = _EF_horizontal;
},
{
alignment = -1;
pos = (-94,208);
ref = _EF_horizontal;
},
{
closed = 1;
nodes = (
(473,600,ls),
(483,630,o),
(471,660,o),
(435,660,cs),
(379,660,l),
(71,0,l),
(223,0,l)
);
}
);
width = 600;
},
{
layerId = m002;
name = Regular;
shapes = (
{
alignment = -1;
pos = (82,243);
ref = _EF_horizontal;
},
{
alignment = -1;
pos = (-94,243);
ref = _EF_horizontal;
},
{
closed = 1;
nodes = (
(441,600,ls),
(448,618,o),
(450,630,o),
(435,630,cs),
(429,630,l),
(181,0,l),
(211,0,l)
);
}
);
width = 500;
}
);
unicode = 55;
},
{
glyphname = eight;
lastChange = "2023-04-06 10:30:24 +0000";
layers = (
{
layerId = "7EBE3D46-E53E-419E-A3EC-596DA2EA1E0D";
name = Regular;
shapes = (
{
closed = 1;
nodes = (
(71,442,o),
(90,393,o),
(128,346,c),
(86,312,o),
(60,256,o),
(60,180,c),
(60,59,o),
(142,-22,o),
(301,-22,c),
(451,-22,o),
(543,67,o),
(543,180,c),
(543,259,o),
(503,319,o),
(453,351,c),
(501,384,o),
(533,436,o),
(533,482,c),
(533,619,o),
(435,678,o),
(301,678,c),
(156,678,o),
(71,618,o),
(71,482,c)
);
},
{
closed = 1;
nodes = (
(178,282,o),
(227,300,o),
(298,300,c),
(365,300,o),
(415,280,o),
(415,231,c),
(415,187,o),
(389,158,o),
(298,158,c),
(201,158,o),
(178,187,o),
(178,225,c)
);
},
{
closed = 1;
nodes = (
(192,487,o),
(224,512,o),
(302,512,c),
(378,512,o),
(409,487,o),
(409,452,c),
(409,447,l),
(409,401,o),
(370,383,o),
(302,383,c),
(301,383,ls),
(230,383,o),
(192,400,o),
(192,447,c)
);
}
);
width = 600;
},
{
layerId = m002;
name = Regular;
shapes = (
{
closed = 1;
nodes = (
(41,383,o),
(84,351,o),
(154,328,c),
(84,307,o),
(23,267,o),
(23,162,c),
(23,51,o),
(72,-5,o),
(241,-5,c),
(381,-5,o),
(453,70,o),
(453,174,c),
(453,272,o),
(386,309,o),
(324,326,c),
(391,349,o),
(443,385,o),
(443,457,c),
(443,582,o),
(345,636,o),
(241,636,c),
(126,636,o),
(41,581,o),
(41,457,c)
);
},
{
closed = 1;
nodes = (
(40,283,o),
(135,319,o),
(239,319,c),
(339,319,o),
(436,278,o),
(436,174,c),
(436,78,o),
(386,18,o),
(239,18,c),
(84,18,o),
(40,78,o),
(40,161,c)
);
},
{
closed = 1;
nodes = (
(61,556,o),
(122,612,o),
(242,612,c),
(357,612,o),
(416,556,o),
(416,483,c),
(416,471,l),
(416,374,o),
(341,335,o),
(242,335,c),
(239,335,ls),
(132,335,o),
(61,373,o),
(61,471,c)
);
}
);
width = 500;
}
);
unicode = 56;
},
{
glyphname = question;
lastChange = "2023-04-05 05:53:40 +0000";
layers = (
{
layerId = "7EBE3D46-E53E-419E-A3EC-596DA2EA1E0D";
name = Regular;
shapes = (
{
closed = 1;
nodes = (
(326,455,o),
(309,453,o),
(219,369,cs),
(163,317,o),
(163,288,o),
(163,225,c),
(288,225,l),
(288,288,o),
(298,291,o),
(318,311,cs),
(428,426,o),
(458,448,o),
(458,530,cs),
(458,636,o),
(389,718,o),
(244,718,cs),
(198,718,o),
(92,709,o),
(40,673,c),
(65,624,o),
(75,569,o),
(78,513,c),
(119,544,o),
(187,564,o),
(243,564,cs),
(312,564,o),
(326,520,o),
(326,492,cs)
);
},
{
pos = (117,-609);
ref = _dot;
}
);
width = 600;
},
{
layerId = m002;
name = Regular;
shapes = (
{
closed = 1;
nodes = (
(411,461,o),
(398,416,o),
(308,323,cs),
(255,268,o),
(251,228,o),
(251,135,c),
(271,135,l),
(271,198,o),
(270,246,o),
(317,297,cs),
(424,413,o),
(439,444,o),
(439,496,cs),
(439,584,o),
(377,633,o),
(262,633,cs),
(161,633,o),
(105,605,o),
(63,579,c),
(68,570,o),
(77,556,o),
(78,549,c),
(119,580,o),
(205,603,o),
(261,603,cs),
(370,603,o),
(411,567,o),
(411,498,cs)
);
},
{
pos = (117,-609);
ref = _dot;
}
);
width = 500;
}
);
unicode = 63;
},
{
glyphname = bullet;
lastChange = "2023-04-05 05:53:40 +0000";
layers = (
{
layerId = "7EBE3D46-E53E-419E-A3EC-596DA2EA1E0D";
name = Regular;
shapes = (
{
closed = 1;
nodes = (
(301.072,170,o),
(375,239.379,o),
(375,326,c),
(375,414.621,o),
(301.072,484,o),
(218,484,c),
(135.992,484,o),
(60,414.814,o),
(60,326,c),
(60,239.186,o),
(135.992,170,o),
(218,170,c)
);
}
);
width = 600;
},
{
layerId = m002;
name = Regular;
shapes = (
{
closed = 1;
nodes = (
(274,233,o),
(318,274,o),
(318,327,c),
(318,380,o),
(274,422,o),
(223,422,c),
(174,422,o),
(128,380,o),
(128,327,c),
(128,274,o),
(174,233,o),
(223,233,c)
);
}
);
width = 500;
}
);
unicode = 8226;
},
{
glyphname = asterisk;
lastChange = "2023-04-05 05:53:40 +0000";
layers = (
{
layerId = "7EBE3D46-E53E-419E-A3EC-596DA2EA1E0D";
name = Regular;
shapes = (
{
closed = 1;
nodes = (
(296.449,532.289,l),
(368.549,572.794,l),
(322.076,654.523,l),
(245,607.371,l),
(245,703,l),
(168,703,l),
(168,605.728,l),
(91.382,654.983,l),
(52.036,573.011,l),
(122.455,533,l),
(50.804,492.289,l),
(94.791,412.462,l),
(173,458.842,l),
(173,363,l),
(250,363,l),
(250,458.763,l),
(327.838,412.061,l),
(365.753,494.486,l)
);
}
);
width = 600;
},
{
layerId = m002;
name = Regular;
shapes = (
{
closed = 1;
nodes = (
(239,532,l),
(332,584,l),
(314,617,l),
(220,559,l),
(220,674,l),
(193,674,l),
(193,557,l),
(101,616,l),
(87,586,l),
(179,533,l),
(87,481,l),
(104,450,l),
(198,506,l),
(198,392,l),
(225,392,l),
(225,506,l),
(317,451,l),
(331,481,l)
);
}
);
width = 500;
}
);
unicode = 42;
},
{
glyphname = numbersign;
lastChange = "2023-04-05 05:53:40 +0000";
layers = (
{
layerId = "7EBE3D46-E53E-419E-A3EC-596DA2EA1E0D";
name = Regular;
shapes = (
{
closed = 1;
nodes = (
(572,292,l),
(480,292,l),
(492,406,l),
(589,406,l),
(598,524,l),
(504,524,l),
(518,663,l),
(418,663,l),
(406,524,l),
(309,524,l),
(322,663,l),
(224,663,l),
(211,524,l),
(103,524,l),
(94,406,l),
(198,406,l),
(187,292,l),
(77,292,l),
(70,174,l),
(175,174,l),
(157,-3,l),
(256,-3,l),
(274,174,l),
(370,174,l),
(352,-3,l),
(450,-3,l),
(468,174,l),
(565,174,l)
);
},
{
closed = 1;
nodes = (
(285,292,l),
(297,406,l),
(393,406,l),
(381,292,l)
);
}
);
width = 600;
},
{
layerId = m002;
name = Regular;
shapes = (
{
closed = 1;
nodes = (
(547,231,l),
(446,231,l),
(468,437,l),
(571,437,l),
(574,479,l),
(473,479,l),
(487,626,l),
(446,626,l),
(432,479,l),
(264,479,l),
(279,626,l),
(239,626,l),
(226,479,l),
(111,479,l),
(107,437,l),
(219,437,l),
(199,231,l),
(84,231,l),
(81,191,l),
(195,191,l),
(177,2,l),
(217,2,l),
(236,191,l),
(401,191,l),
(383,2,l),
(424,2,l),
(443,191,l),
(545,191,l)
);
},
{
closed = 1;
nodes = (
(239,231,l),
(261,437,l),
(427,437,l),
(406,231,l)
);
}
);
width = 500;
}
);
unicode = 35;
},
{
glyphname = braceleft;
lastChange = "2023-04-05 05:53:40 +0000";
layers = (
{
layerId = "7EBE3D46-E53E-419E-A3EC-596DA2EA1E0D";
name = Regular;
shapes = (
{
closed = 1;
nodes = (
(449,-85,l),
(410,-85,ls),
(352,-85,o),
(324,-66,o),
(319,-24,c),
(319,153,ls),
(319,217,o),
(278,263,o),
(211,287,c),
(278,302,o),
(318,357,o),
(318,420,cs),
(318,542,l),
(323,582,o),
(351,601,o),
(410,601,cs),
(449,601,l),
(449,733,l),
(393,733,ls),
(255,733,o),
(197,652,o),
(197,533,cs),
(197,429,ls),
(197,374,o),
(181,351,o),
(91,351,cs),
(60,351,l),
(60,221,l),
(91,221,ls),
(177,221,o),
(197,193,o),
(197,141,cs),
(197,-17,ls),
(197,-148,o),
(268,-215,o),
(393,-215,cs),
(449,-215,l)
);
}
);
width = 600;
},
{
layerId = m002;
name = Regular;
shapes = (
{
closed = 1;
nodes = (
(420,-136,l),
(410,-136,ls),
(325,-136,o),
(277,-91,o),
(270,-28,c),
(270,153,ls),
(270,225,o),
(270,233,o),
(170,286,c),
(271,343,o),
(269,349,o),
(269,420,cs),
(269,546,l),
(276,604,o),
(321,652,o),
(410,652,cs),
(420,652,l),
(420,682,l),
(393,682,ls),
(263,682,o),
(226,630,o),
(226,533,cs),
(226,429,ls),
(226,347,o),
(202,300,o),
(91,300,cs),
(89,300,l),
(89,272,l),
(91,272,ls),
(205,272,o),
(226,209,o),
(226,141,cs),
(226,-17,ls),
(226,-119,o),
(273,-164,o),
(393,-164,cs),
(420,-164,l)
);
}
);
width = 500;
}
);
unicode = 123;
},
{
glyphname = guilsinglleft;
lastChange = "2023-04-05 05:53:40 +0000";
layers = (
{
layerId = "7EBE3D46-E53E-419E-A3EC-596DA2EA1E0D";
name = Regular;
shapes = (
{
closed = 1;
nodes = (
(100,363,l),
(80,350,o),
(60,342,o),
(60,321,cs),
(60,305,o),
(78,289,o),
(102,279,cs),
(337,177,ls),
(365,165,o),
(370,177,o),
(370,198,cs),
(370,258,ls),
(370,264,o),
(367,272,o),
(362,274,cs),
(256,321,l),
(362,368,ls),
(367,370,o),
(370,378,o),
(370,384,cs),
(370,454,ls),
(370,475,o),
(365,488,o),
(337,475,cs)
);
}
);
width = 600;
},
{
layerId = m002;
name = Regular;
shapes = (
{
closed = 1;
nodes = (
(80,309,ls),
(65,300,o),
(50,290,o),
(50,281,cs),
(50,271,o),
(66,262,o),
(80,253,cs),
(217,167,ls),
(245,150,o),
(250,157,o),
(250,178,cs),
(250,188,ls),
(250,194,o),
(248,201,o),
(242,204,cs),
(86,281,l),
(242,358,ls),
(248,361,o),
(250,368,o),
(250,374,cs),
(250,384,ls),
(250,405,o),
(245,412,o),
(217,395,cs)
);
}
);
width = 500;
}
);
unicode = 8249;
},
{
glyphname = at;
lastChange = "2023-04-06 11:08:50 +0000";
layers = (
{
layerId = "7EBE3D46-E53E-419E-A3EC-596DA2EA1E0D";
shapes = (
{
closed = 1;
nodes = (
(177,80,o),
(103,162,o),
(103,289,cs),
(103,396,ls),
(103,543,o),
(197,575,o),
(289,575,cs),
(361,575,o),
(394,548,o),
(394,501,c),
(482,502,l),
(480,600,o),
(422,676,o),
(289,676,cs),
(128,676,o),
(20,567,o),
(20,412,cs),
(20,255,ls),
(20,99,o),
(127,-11,o),
(289,-11,cs),
(432,-11,o),
(480,91,o),
(482,160,c),
(394,161,l),
(394,124,o),
(351,80,o),
(289,80,cs)
);
},
{
angle = 180;
pos = (501,503);
ref = _curve_b;
scale = (0.7049,0.6782);
}
);
width = 500;
},
{
layerId = m002;
shapes = (
{
closed = 1;
nodes = (
(137,18,o),
(73,102,o),
(73,289,cs),
(73,396,ls),
(73,563,o),
(147,652,o),
(289,652,cs),
(391,652,o),
(443,600,o),
(443,502,c),
(462,503,l),
(460,601,o),
(422,676,o),
(289,676,cs),
(128,676,o),
(50,567,o),
(50,412,cs),
(50,255,ls),
(50,99,o),
(127,-11,o),
(289,-11,cs),
(392,-11,o),
(460,61,o),
(462,160,c),
(444,161,l),
(444,84,o),
(391,18,o),
(289,18,cs)
);
},
{
angle = 180;
pos = (501,503);
ref = _curve_b;
scale = (0.7049,0.6782);
}
);
width = 500;
}
);
unicode = 64;
},
{
glyphname = ampersand;
lastChange = "2023-04-05 05:53:40 +0000";
layers = (
{
layerId = "7EBE3D46-E53E-419E-A3EC-596DA2EA1E0D";
name = Regular;
shapes = (
{
closed = 1;
nodes = (
(161,224,o),
(169,236,o),
(225,272,c),
(329,147,l),
(312,141,o),
(289,136,o),
(265,136,cs),
(190,136,o),
(161,163,o),
(161,197,cs)
);
},
{
closed = 1;
nodes = (
(363,450,o),
(251,397,c),
(195,453,o),
(199,530,o),
(279,530,cs),
(363,531,o)
);
},
{
closed = 1;
nodes = (
(495,23,o),
(543,34,o),
(595,33,c),
(491,147,l),
(517,202,o),
(539,287,o),
(523,335,c),
(428,367,l),
(434,303,o),
(430,287,o),
(413,243,c),
(336,332,l),
(386,363,o),
(440,411,o),
(440,511,cs),
(440,598,o),
(384,679,o),
(281,679,cs),
(178,679,o),
(112,599,o),
(112,492,cs),
(112,454,o),
(126,400,o),
(161,372,c),
(112,341,o),
(60,283,o),
(60,187,cs),
(60,73,o),
(132,-13,o),
(253,-13,cs),
(310,-13,o),
(352,0,o),
(412,46,c),
(450,1,l)
);
}
);
width = 600;
},
{
layerId = m002;
name = Regular;
shapes = (
{
closed = 1;
nodes = (
(88,232,o),
(184,283,o),
(240,319,c),
(453,90,l),
(415,54,o),
(318,28,o),
(264,28,cs),
(185,28,o),
(88,56,o),
(88,158,cs)
);
},
{
closed = 1;
nodes = (
(376,407,o),
(248,351,c),
(151,429,o),
(143,603,o),
(279,603,cs),
(391,603,o)
);
},
{
closed = 1;
nodes = (
(519,23,o),
(560,19,o),
(568,18,c),
(487,94,l),
(526,136,o),
(556,216,o),
(560,304,c),
(526,311,l),
(522,207,o),
(497,148,o),
(469,111,c),
(263,330,l),
(313,361,o),
(389,411,o),
(389,511,cs),
(389,578,o),
(354,637,o),
(281,637,cs),
(178,637,o),
(142,570,o),
(142,492,cs),
(142,434,o),
(186,371,o),
(221,340,c),
(172,309,o),
(60,253,o),
(60,157,cs),
(60,22,o),
(176,-4,o),
(265,-4,cs),
(322,-4,o),
(424,24,o),
(465,70,c),
(509,18,l)
);
}
);
width = 500;
}
);
unicode = 38;
},
{
glyphname = paragraph;
lastChange = "2023-04-05 05:53:40 +0000";
layers = (
{
layerId = "7EBE3D46-E53E-419E-A3EC-596DA2EA1E0D";
name = Regular;
shapes = (
{
closed = 1;
nodes = (
(141,279,o),
(80,367,o),
(80,469,c),
(80,573,o),
(157,659,o),
(343,659,c),
(511,659,l),
(511,1,l),
(439,1,l),
(439,627,l),
(335,627,l),
(335,276,l)
);
}
);
width = 600;
},
{
layerId = m002;
name = Regular;
shapes = (
{
closed = 1;
nodes = (
(141,248,o),
(80,336,o),
(80,438,c),
(80,542,o),
(157,628,o),
(343,628,c),
(465,628,l),
(465,0,l),
(439,0,l),
(439,600,l),
(335,600,l),
(335,245,l)
);
}
);
width = 500;
}
);
unicode = 182;
},
{
glyphname = section;
lastChange = "2023-04-05 05:53:40 +0000";
layers = (
{
layerId = "7EBE3D46-E53E-419E-A3EC-596DA2EA1E0D";
name = Regular;
shapes = (
{
closed = 1;
nodes = (
(500,86,o),
(528,144,o),
(528,197,c),
(528,286,o),
(458,338,o),
(385,375,cs),
(306,416,o),
(223,439,o),
(223,474,cs),
(223,514,o),
(287,520,o),
(329,520,cs),
(371,520,o),
(408,514,o),
(454,501,c),
(474,653,l),
(433,662,o),
(392,667,o),
(351,667,c),
(182,667,o),
(135,570,o),
(135,496,c),
(135,465,o),
(147,439,o),
(160,420,c),
(110,384,o),
(84,324,o),
(84,273,c),
(84,193,o),
(142,140,o),
(208,102,cs),
(294,52,o),
(392,25,o),
(392,-10,c),
(392,-44,o),
(358,-61,o),
(276,-61,c),
(216,-61,o),
(173,-52,o),
(120,-35,c),
(100,-182,l),
(152,-194,o),
(187,-201,o),
(260,-201,c),
(355,-201,o),
(479,-150,o),
(479,-25,c),
(479,4,o),
(467,31,o),
(454,50,c)
);
},
{
closed = 1;
nodes = (
(284,172,o),
(188,216,o),
(188,280,c),
(188,300,o),
(203,332,o),
(240,352,c),
(325,297,o),
(425,254,o),
(425,190,c),
(425,171,o),
(408,137,o),
(372,116,c)
);
}
);
width = 600;
},
{
layerId = m002;
name = Regular;
shapes = (
{
closed = 1;
nodes = (
(448,111,o),
(472,135,o),
(472,186,c),
(472,265,o),
(392,306,o),
(326,349,cs),
(251,398,o),
(160,446,o),
(160,501,cs),
(160,590,o),
(245,602,o),
(334,602,cs),
(376,602,o),
(413,596,o),
(459,583,c),
(462,618,l),
(421,627,o),
(380,632,o),
(339,632,c),
(170,632,o),
(135,570,o),
(135,496,c),
(133,452,o),
(162,419,o),
(192,400,c),
(142,364,o),
(125,338,o),
(125,297,c),
(125,219,o),
(179,183,o),
(242,145,cs),
(329,92,o),
(449,35,o),
(449,-33,cs),
(449,-135,o),
(343,-173,o),
(261,-173,c),
(201,-173,o),
(158,-165,o),
(105,-148,c),
(100,-182,l),
(152,-194,o),
(187,-201,o),
(260,-201,c),
(358,-205,o),
(482,-138,o),
(479,-35,cs),
(477,28,o),
(427,62,o),
(399,80,c)
);
},
{
closed = 1;
nodes = (
(272,163,o),
(153,217,o),
(153,295,c),
(153,320,o),
(171,359,o),
(217,384,c),
(322,316,o),
(446,263,o),
(446,184,c),
(446,160,o),
(424,119,o),
(380,93,c)
);
}
);
width = 500;
}
);
unicode = 167;
},
{
glyphname = degree;
lastChange = "2023-04-05 05:53:40 +0000";
layers = (
{
layerId = "7EBE3D46-E53E-419E-A3EC-596DA2EA1E0D";
name = Regular;
shapes = (
{
closed = 1;
nodes = (
(294.213,407,o),
(367,479.787,o),
(367,571,c),
(367,661.213,o),
(294.213,734,o),
(214,734,c),
(132.787,734,o),
(60,661.213,o),
(60,571,c),
(60,479.787,o),
(132.787,407,o),
(214,407,c)
);
},
{
closed = 1;
nodes = (
(174.371,513,o),
(147,541.139,o),
(147,572,c),
(147,600.854,o),
(174.371,629,o),
(215,629,c),
(254.696,629,o),
(283,600.665,o),
(283,572,c),
(283,541.328,o),
(254.696,513,o),
(215,513,c)
);
}
);
width = 600;
},
{
layerId = m002;
name = Regular;
shapes = (
{
closed = 1;
nodes = (
(166,480,o),
(199,513,o),
(199,555,c),
(199,596,o),
(166,629,o),
(130,629,c),
(93,629,o),
(60,596,o),
(60,555,c),
(60,513,o),
(93,480,o),
(130,480,c)
);
},
{
closed = 1;
nodes = (
(109,515,o),
(94,532,o),
(94,553,c),
(94,574,o),
(109,590,o),
(130,590,c),
(152,590,o),
(166,574,o),
(166,553,c),
(166,532,o),
(152,515,o),
(130,515,c)
);
}
);
width = 500;
}
);
unicode = 176;
},
{
glyphname = currency;
lastChange = "2023-04-05 05:53:40 +0000";
layers = (
{
layerId = "7EBE3D46-E53E-419E-A3EC-596DA2EA1E0D";
name = Regular;
shapes = (
{
closed = 1;
nodes = (
(139,444,l),
(70,376,l),
(163,284,l),
(233,351,l)
);
},
{
pos = (67,-71);
ref = degree;
},
{
closed = 1;
nodes = (
(165,719,l),
(72,627,l),
(150,548,l),
(243,638,l)
);
},
{
closed = 1;
nodes = (
(401,702,l),
(332,634,l),
(425,542,l),
(495,609,l)
);
},
{
closed = 1;
nodes = (
(422,457,l),
(329,365,l),
(407,286,l),
(500,376,l)
);
}
);
width = 600;
},
{
layerId = m002;
name = Regular;
shapes = (
{
closed = 1;
nodes = (
(220,468,l),
(151,400,l),
(172,377,l),
(242,444,l)
);
},
{
pos = (151,-51);
ref = degree;
},
{
closed = 1;
nodes = (
(164,643,l),
(144,622,l),
(222,543,l),
(242,562,l)
);
},
{
closed = 1;
nodes = (
(387,627,l),
(318,559,l),
(339,536,l),
(409,603,l)
);
},
{
closed = 1;
nodes = (
(330,470,l),
(310,449,l),
(388,370,l),
(408,389,l)
);
}
);
width = 500;
}
);
unicode = 164;
},
{
glyphname = euro;
lastChange = "2023-04-05 05:53:40 +0000";
layers = (
{
layerId = "7EBE3D46-E53E-419E-A3EC-596DA2EA1E0D";
name = Regular;
shapes = (
{
ref = C;
},
{
closed = 1;
nodes = (
(24,313,l),
(24,192,l),
(337,192,l),
(337,313,l)
);
},
{
closed = 1;
nodes = (
(336,332,l),
(336,453,l),
(24,453,l),
(24,332,l)
);
}
);
width = 600;
},
{
layerId = m002;
name = Regular;
shapes = (
{
alignment = -1;
ref = C;
},
{
closed = 1;
nodes = (
(9,258,l),
(9,226,l),
(327,226,l),
(327,258,l)
);
},
{
closed = 1;
nodes = (
(327,380,l),
(327,411,l),
(9,411,l),
(9,380,l)
);
}
);
width = 500;
}
);
unicode = 8364;
},
{
glyphname = infinity;
lastChange = "2023-04-06 11:31:17 +0000";
layers = (
{
layerId = "7EBE3D46-E53E-419E-A3EC-596DA2EA1E0D";
name = Regular;
shapes = (
{
closed = 1;
nodes = (
(525,568,o),
(456,539,o),
(429,501,c),
(395,543,o),
(339,569,o),
(263,569,c),
(142,569,o),
(61,487,o),
(61,328,c),
(61,178,o),
(150,86,o),
(263,86,c),
(342,86,o),
(402,126,o),
(434,176,c),
(467,128,o),
(519,93,o),
(565,93,c),
(702,93,o),
(761,194,o),
(761,328,c),
(761,473,o),
(701,568,o),
(565,568,c)
);
},
{
closed = 1;
nodes = (
(352,414,o),
(383,380,o),
(383,317,c),
(383,258,o),
(349,214,o),
(266,214,c),
(201,214,o),
(152,237,o),
(152,317,c),
(152,403,o),
(201,414,o),
(256,414,c)
);
},
{
closed = 1;
nodes = (
(643,411,o),
(689,384,o),
(689,318,c),
(689,254,o),
(643,228,o),
(589,228,c),
(580,228,l),
(496,228,o),
(463,261,o),
(463,318,c),
(463,319,ls),
(463,379,o),
(494,411,o),
(580,411,c)
);
}
);
width = 600;
},
{
layerId = m002;
name = Regular;
shapes = (
{
closed = 1;
nodes = (
(519,584,o),
(477,541,o),
(454,471,c),
(433,541,o),
(393,586,o),
(288,586,c),
(177,586,o),
(121,553,o),
(121,354,c),
(121,184,o),
(196,124,o),
(300,124,c),
(398,124,o),
(435,179,o),
(452,241,c),
(475,174,o),
(521,122,o),
(593,122,c),
(718,122,o),
(772,220,o),
(772,354,c),
(772,499,o),
(717,584,o),
(593,584,c)
);
},
{
closed = 1;
nodes = (
(409,569,o),
(445,490,o),
(445,356,c),
(445,226,o),
(404,141,o),
(300,141,c),
(204,141,o),
(144,179,o),
(144,356,c),
(144,541,o),
(204,569,o),
(287,569,c)
);
},
{
closed = 1;
nodes = (
(692,564,o),
(748,503,o),
(748,353,c),
(748,208,o),
(692,149,o),
(619,149,c),
(607,149,l),
(510,149,o),
(461,224,o),
(461,353,c),
(461,356,ls),
(461,493,o),
(509,564,o),
(607,564,c)
);
}
);
width = 1000;
}
);
unicode = 8734;
},
{
glyphname = summation;
lastChange = "2023-04-05 05:53:40 +0000";
layers = (
{
layerId = "7EBE3D46-E53E-419E-A3EC-596DA2EA1E0D";
name = Regular;
shapes = (
{
alignment = -1;
pos = (46,208);
ref = _EF_horizontal;
},
{
alignment = -1;
pos = (-44,208);
ref = _EF_horizontal;
},
{
alignment = -1;
pos = (59,452);
ref = _EF_horizontal;
scale = (1,-1);
},
{
alignment = -1;
pos = (-41,452);
ref = _EF_horizontal;
scale = (1,-1);
},
{
closed = 1;
nodes = (
(374,660,l),
(139,322,l),
(370,0,l),
(528,0,l),
(300,322,l),
(531,660,l)
);
}
);
width = 600;
},
{
layerId = m002;
name = Regular;
shapes = (
{
alignment = -1;
pos = (149,243);
ref = _EF_horizontal;
},
{
alignment = -1;
pos = (-1,243);
ref = _EF_horizontal;
},
{
alignment = -1;
pos = (149,387);
ref = _EF_horizontal;
scale = (1,-1);
},
{
alignment = -1;
pos = (-1,387);
ref = _EF_horizontal;
scale = (1,-1);
},
{
closed = 1;
nodes = (
(494,630,l),
(249,322,l),
(490,0,l),
(528,0,l),
(290,322,l),
(531,630,l)
);
}
);
width = 500;
}
);
unicode = 8721;
},
{
glyphname = radical;
lastChange = "2023-04-06 11:31:58 +0000";
layers = (
{
layerId = "7EBE3D46-E53E-419E-A3EC-596DA2EA1E0D";
name = Regular;
shapes = (
{
closed = 1;
nodes = (
(53,500,l),
(206,18,l),
(278,127,l),
(163,500,l)
);
},
{
pos = (414,209);
ref = _EF_horizontal;
},
{
pos = (685,1);
ref = _backslash;
scale = (-1,1);
}
);
width = 1200;
},
{
layerId = m002;
name = Regular;
shapes = (
{
closed = 1;
nodes = (
(40,418,l),
(166,5,l),
(183,30,l),
(77,418,l)
);
},
{
pos = (329,243);
ref = _EF_horizontal;
},
{
pos = (560,1);
ref = _backslash;
scale = (-1,1);
}
);
width = 1000;
}
);
unicode = 8730;
},
{
glyphname = percent;
lastChange = "2023-04-05 05:53:40 +0000";
layers = (
{
layerId = "7EBE3D46-E53E-419E-A3EC-596DA2EA1E0D";
name = Regular;
shapes = (
{
closed = 1;
nodes = (
(407,659,l),
(92,0,l),
(194,0,l),
(513,659,l)
);
},
{
pos = (305,-276);
ref = _percent;
},
{
pos = (43,165);
ref = _percent;
}
);
width = 600;
},
{
layerId = m002;
name = Regular;
shapes = (
{
closed = 1;
nodes = (
(446,625,l),
(110,0,l),
(143,0,l),
(483,625,l)
);
},
{
pos = (269,-268);
ref = _percent;
},
{
pos = (44,115);
ref = _percent;
}
);
width = 500;
}
);
unicode = 37;
},
{
glyphname = ring;
lastChange = "2023-04-05 05:53:40 +0000";
layers = (
{
layerId = "7EBE3D46-E53E-419E-A3EC-596DA2EA1E0D";
name = Regular;
shapes = (
{
closed = 1;
nodes = (
(378.025,510,o),
(443,574.975,o),
(443,655.5,c),
(443,736.025,o),
(378.025,801,o),
(307.5,801,c),
(236.975,801,o),
(172,736.025,o),
(172,655.5,c),
(172,574.975,o),
(236.975,510,o),
(307.5,510,c)
);
},
{
closed = 1;
nodes = (
(291,608,o),
(276,631,o),
(276,652,c),
(276,673,o),
(291,695,o),
(312,695,c),
(334,695,o),
(348,673,o),
(348,652,c),
(348,631,o),
(334,608,o),
(312,608,c)
);
}
);
width = 600;
},
{
layerId = m002;
name = Regular;
shapes = (
{
closed = 1;
nodes = (
(346,480,o),
(379,513,o),
(379,555,c),
(379,596,o),
(346,629,o),
(310,629,c),
(273,629,o),
(240,596,o),
(240,555,c),
(240,513,o),
(273,480,o),
(310,480,c)
);
},
{
closed = 1;
nodes = (
(289,507,o),
(274,530,o),
(274,551,c),
(274,572,o),
(289,594,o),
(310,594,c),
(332,594,o),
(346,572,o),
(346,551,c),
(346,530,o),
(332,507,o),
(310,507,c)
);
}
);
width = 500;
}
);
unicode = 730;
},
{
glyphname = cedilla;
lastChange = "2023-04-05 05:53:40 +0000";
layers = (
{
layerId = "7EBE3D46-E53E-419E-A3EC-596DA2EA1E0D";
name = Regular;
shapes = (
{
closed = 1;
nodes = (
(226,-59,l),
(254,-53,o),
(294,-65,o),
(294,-110,c),
(294,-147,o),
(254,-157,o),
(218,-142,c),
(174,-243,l),
(289,-278,o),
(397,-238,o),
(397,-117,c),
(397,-51,o),
(353,-19,o),
(307,-18,c),
(334.318,36.864,l),
(237.744,25.118,l)
);
}
);
width = 600;
},
{
layerId = m002;
name = Regular;
shapes = (
{
closed = 1;
nodes = (
(276,-59,l),
(304,-53,o),
(344,-65,o),
(344,-110,c),
(344,-147,o),
(304,-157,o),
(268,-142,c),
(264,-173,l),
(318,-188,o),
(377,-174,o),
(377,-107,c),
(377,-61,o),
(342,-30,o),
(307,-28,c),
(314,27,l),
(288,25,l)
);
}
);
width = 500;
}
);
unicode = 184;
},
{
glyphname = ogonek;
lastChange = "2023-04-05 05:53:40 +0000";
layers = (
{
layerId = "7EBE3D46-E53E-419E-A3EC-596DA2EA1E0D";
name = Regular;
shapes = (
{
closed = 1;
nodes = (
(382,-107,l),
(347,-108,l),
(314,-108,o),
(302,-89,o),
(302,-79,c),
(302,-56,o),
(292,-33,o),
(367,20,c),
(243.692,20,l),
(172.394,-23.127,o),
(171,-80.805,o),
(171,-115,c),
(171,-176.581,o),
(228.547,-240,o),
(305,-240,c),
(324.004,-240,o),
(362,-239,o),
(381,-234,c)
);
}
);
width = 600;
},
{
layerId = m002;
name = Regular;
shapes = (
{
closed = 1;
nodes = (
(409,-107,l),
(374,-108,l),
(341,-108,o),
(329,-84,o),
(329,-74,cs),
(329,-51,o),
(329,-23,o),
(384,20,c),
(357,20,l),
(315,-13,o),
(288,-43,o),
(288,-87,cs),
(288,-119,o),
(326,-150,o),
(362,-150,c),
(381,-150,o),
(389,-149,o),
(408,-144,c)
);
}
);
width = 500;
}
);
unicode = 731;
},
{
export = 0;
glyphname = "_dash-small";
lastChange = "2023-04-05 05:53:40 +0000";
layers = (
{
layerId = "7EBE3D46-E53E-419E-A3EC-596DA2EA1E0D";
name = Regular;
shapes = (
{
closed = 1;
nodes = (
(160,222,l),
(342,222,l),
(342,343,l),
(160,343,l)
);
}
);
width = 600;
},
{
layerId = m002;
name = Regular;
shapes = (
{
closed = 1;
nodes = (
(140,259,l),
(362,259,l),
(362,293,l),
(140,293,l)
);
}
);
width = 500;
}
);
},
{
glyphname = _curve_b;
lastChange = "2023-05-24 14:27:17 +0000";
layers = (
{
layerId = "7EBE3D46-E53E-419E-A3EC-596DA2EA1E0D";
name = Regular;
shapes = (
{
closed = 1;
nodes = (
(245,514,o),
(157,459,o),
(132,419,c),
(102,510,l),
(27,510,l),
(27,-1,l),
(112,-1,l),
(132,47,l),
(166,18,o),
(261,-7,o),
(312,-7,cs),
(441,-7,o),
(541,80,o),
(541,256,cs),
(541,425,o),
(433,514,o),
(313,514,cs)
);
},
{
closed = 1;
nodes = (
(132,193,ls),
(132,329,o),
(235,357,o),
(297,357,cs),
(384,357,o),
(429,317,o),
(428,251,cs),
(427,193,o),
(373,150,o),
(289,149,cs),
(242,148,o),
(156,158,o),
(132,170,c)
);
}
);
width = 600;
},
{
layerId = m002;
name = Regular;
shapes = (
{
closed = 1;
nodes = (
(165,510,o),
(115,470,o),
(83,347,c),
(82,509,l),
(55,510,l),
(55,0,l),
(82,0,l),
(82,69,l),
(136,30,o),
(171,0,o),
(242,0,cs),
(381,0,o),
(451,100,o),
(451,256,cs),
(451,395,o),
(393,510,o),
(263,510,cs)
);
},
{
closed = 1;
nodes = (
(76,202,ls),
(76,353,o),
(107,480,o),
(256,480,cs),
(401,480,o),
(419,357,o),
(419,251,cs),
(419,75,o),
(307,31,o),
(243,30,cs),
(146,29,o),
(100,77,o),
(76,89,c)
);
}
);
width = 500;
}
);
},
{
export = 0;
glyphname = "C-";
lastChange = "2023-04-05 06:17:52 +0000";
layers = (
{
layerId = "7EBE3D46-E53E-419E-A3EC-596DA2EA1E0D";
shapes = (
{
closed = 1;
nodes = (
(164,385,o),
(40,362,o),
(40,329,c),
(40,102,o),
(168,-1,o),
(326,-1,cs),
(388,-1,o),
(432,9,o),
(506,49,c),
(497,105,o),
(481,161,o),
(471,206,c),
(428,173,o),
(375,159,o),
(336,159,cs),
(224,159,o),
(164,224,o),
(164,340,cs)
);
}
);
width = 600;
},
{
layerId = m002;
shapes = (
{
closed = 1;
nodes = (
(77,320,o),
(40,317,o),
(40,314,c),
(40,97,o),
(108,-5,o),
(256,-5,cs),
(352,-5,o),
(413,18,o),
(451,38,c),
(449,50,o),
(446,64,o),
(441,76,c),
(388,44,o),
(315,27,o),
(246,27,cs),
(164,27,o),
(77,101,o),
(77,313,cs)
);
}
);
width = 500;
}
);
},
{
export = 0;
glyphname = "S-curve";
lastChange = "2023-04-05 05:53:40 +0000";
layers = (
{
layerId = "7EBE3D46-E53E-419E-A3EC-596DA2EA1E0D";
name = Regular;
shapes = (
{
closed = 1;
nodes = (
(330,584,o),
(384,570,o),
(428,550,c),
(453,679,l),
(396,700,o),
(339,713,o),
(275,711,c),
(276,581,l)
);
}
);
width = 600;
},
{
layerId = m002;
name = Regular;
shapes = (
{
closed = 1;
nodes = (
(330,584,o),
(384,570,o),
(428,550,c),
(453,679,l),
(396,700,o),
(339,713,o),
(275,711,c),
(276,581,l)
);
}
);
width = 500;
}
);
},
{
export = 0;
glyphname = _A;
lastChange = "2023-04-05 05:53:40 +0000";
layers = (
{
layerId = "7EBE3D46-E53E-419E-A3EC-596DA2EA1E0D";
name = Regular;
shapes = (
{
closed = 1;
nodes = (
(306,729,l),
(284,729,l),
(11,0,l),
(134,0,l),
(296,454,l),
(446,0,l),
(570,0,l)
);
}
);
width = 600;
},
{
layerId = m002;
name = Regular;
shapes = (
{
closed = 1;
nodes = (
(306,729,l),
(284,729,l),
(11,0,l),
(134,0,l),
(296,454,l),
(446,0,l),
(570,0,l)
);
}
);
width = 500;
}
);
},
{
export = 0;
glyphname = _C_curve;
lastChange = "2023-04-05 05:53:40 +0000";
layers = (
{
layerId = "7EBE3D46-E53E-419E-A3EC-596DA2EA1E0D";
name = Regular;
shapes = (
{
closed = 1;
nodes = (
(426,642,l),
(379,673,o),
(326,687,o),
(252,685,cs),
(104,682,o),
(1,599,o),
(1,321,cs),
(1,69,o),
(125,121,o),
(125,352,cs),
(125,459,o),
(159,526,o),
(246,525,cs),
(305,524,o),
(354,505,o),
(391,483,c)
);
}
);
width = 600;
},
{
layerId = m002;
name = Regular;
shapes = (
{
closed = 1;
nodes = (
(436,552,l),
(379,583,o),
(322,596,o),
(282,595,cs),
(144,592,o),
(1,559,o),
(1,281,cs),
(1,29,o),
(28,71,o),
(28,302,cs),
(28,480,o),
(112,566,o),
(276,565,cs),
(335,565,o),
(373,547,o),
(410,528,c)
);
}
);
width = 500;
}
);
},
{
export = 0;
glyphname = _C_lowe;
lastChange = "2023-04-05 05:53:40 +0000";
layers = (
{
layerId = "7EBE3D46-E53E-419E-A3EC-596DA2EA1E0D";
name = Regular;
shapes = (
{
closed = 1;
nodes = (
(30,298,c),
(30,55,o),
(188,-25,o),
(306,-26,c),
(388,-25,o),
(462,5,o),
(514,53,c),
(454,160,l),
(413,124,o),
(364,104,o),
(306,104,c),
(237,104,o),
(144,142,o),
(144,307,c),
(144,466,o),
(30,458,o)
);
}
);
width = 600;
},
{
layerId = m002;
name = Regular;
shapes = (
{
closed = 1;
nodes = (
(30,298,c),
(30,55,o),
(188,-25,o),
(306,-26,c),
(388,-25,o),
(462,5,o),
(514,53,c),
(454,160,l),
(413,124,o),
(364,104,o),
(306,104,c),
(237,104,o),
(144,142,o),
(144,307,c),
(144,466,o),
(30,458,o)
);
}
);
width = 500;
}
);
},
{
export = 0;
glyphname = _D;
lastChange = "2023-04-05 13:12:47 +0000";
layers = (
{
layerId = "7EBE3D46-E53E-419E-A3EC-596DA2EA1E0D";
name = Regular;
shapes = (
{
closed = 1;
nodes = (
(460,188,o),
(573,214,o),
(573,389,c),
(573,612,o),
(443,718,o),
(263,721,c),
(192,722,o),
(120.116,720.794,o),
(72,710.988,c),
(72,550,l),
(113,564,o),
(196,566,o),
(250,566,c),
(386,566,o),
(460,514,o),
(460,389,c)
);
}
);
width = 600;
},
{
layerId = m002;
name = Regular;
shapes = (
{
closed = 1;
nodes = (
(460,368,o),
(493,336,o),
(493,389,c),
(493,612,o),
(383,718,o),
(203,721,c),
(132,722,o),
(120.116,720.794,o),
(72,710.988,c),
(72,678,l),
(113,692,o),
(136,694,o),
(190,694,c),
(326,694,o),
(460,632,o),
(460,389,c)
);
}
);
width = 500;
}
);
},
{
export = 0;
glyphname = _D_cyr;
lastChange = "2023-04-05 05:53:40 +0000";
layers = (
{
layerId = "7EBE3D46-E53E-419E-A3EC-596DA2EA1E0D";
name = Regular;
shapes = (
{
closed = 1;
nodes = (
(492.178,-20,l),
(550,-20,l),
(550,-154,l),
(662.093,-154,l),
(661,142,l),
(485,141,l)
);
}
);
width = 600;
},
{
layerId = m002;
name = Regular;
shapes = (
{
closed = 1;
nodes = (
(552,-22,l),
(610,-22,l),
(610,-156,l),
(647,-156,l),
(646,9,l),
(555,8,l)
);
}
);
width = 500;
}
);
},
{
export = 0;
glyphname = _EF_horizontal;
lastChange = "2023-04-05 05:53:40 +0000";
layers = (
{
layerId = "7EBE3D46-E53E-419E-A3EC-596DA2EA1E0D";
name = Regular;
shapes = (
{
closed = 1;
nodes = (
(124,292,l),
(346,292,l),
(346,452,l),
(124,452,l)
);
}
);
width = 600;
},
{
layerId = m002;
name = Regular;
shapes = (
{
closed = 1;
nodes = (
(114,357,l),
(356,357,l),
(356,387,l),
(114,387,l)
);
}
);
width = 500;
}
);
},
{
export = 0;
glyphname = _I_dbh;
lastChange = "2023-04-05 05:53:40 +0000";
layers = (
{
layerId = "7EBE3D46-E53E-419E-A3EC-596DA2EA1E0D";
name = Regular;
shapes = (
{
closed = 1;
nodes = (
(30,244,l),
(143,244,l),
(143,451,l),
(30,451,l)
);
},
{
alignment = -1;
pos = (0,21);
ref = _I_small;
},
{
alignment = -1;
pos = (0,225);
ref = _I_small;
},
{
alignment = -1;
pos = (0,474);
ref = _I_small;
},
{
alignment = -1;
pos = (0,393);
ref = _I_small;
}
);
width = 600;
},
{
layerId = m002;
name = Regular;
shapes = (
{
closed = 1;
nodes = (
(134,244,l),
(143,244,l),
(143,326,l),
(134,326,l)
);
},
{
alignment = -1;
pos = (0,21);
ref = _I_small;
},
{
alignment = -1;
pos = (0,225);
ref = _I_small;
},
{
alignment = -1;
pos = (0,474);
ref = _I_small;
},
{
alignment = -1;
pos = (0,393);
ref = _I_small;
}
);
width = 500;
}
);
},
{
export = 0;
glyphname = _I_small;
lastChange = "2023-04-05 05:53:40 +0000";
layers = (
{
layerId = "7EBE3D46-E53E-419E-A3EC-596DA2EA1E0D";
name = Regular;
shapes = (
{
closed = 1;
nodes = (
(30,-19,l),
(155,-19,l),
(155,188,l),
(30,188,l)
);
}
);
width = 600;
},
{
layerId = m002;
name = Regular;
shapes = (
{
closed = 1;
nodes = (
(128,-19,l),
(155,-19,l),
(155,198,l),
(128,198,l)
);
}
);
width = 500;
}
);
},
{
export = 0;
glyphname = _M;
lastChange = "2023-04-22 14:02:32 +0000";
layers = (
{
layerId = "7EBE3D46-E53E-419E-A3EC-596DA2EA1E0D";
name = Regular;
shapes = (
{
closed = 1;
nodes = (
(370,183,o),
(391,199,o),
(404,236,cs),
(467,415,l),
(467,298,ls),
(467,278,o),
(485,265,o),
(505,271,cs),
(575,293,ls),
(585,296,o),
(592,305,o),
(592,315,cs),
(592,601,ls),
(592,666,o),
(557,698,o),
(513,698,cs),
(468,698,o),
(443,684,o),
(417,615,cs),
(349,432,ls),
(336,396,o),
(334,400,o),
(334,365,cs),
(334,216,o),
(316,183,o),
(340,183,cs)
);
}
);
width = 600;
},
{
layerId = m002;
name = Regular;
shapes = (
{
closed = 1;
nodes = (
(432,196,o),
(440,199,o),
(449,224,cs),
(578,589,l),
(578,512,ls),
(578,492,o),
(571,208,o),
(587,220,cs),
(591,223,ls),
(602,231,o),
(604,235,o),
(604,245,cs),
(604,601,ls),
(604,624,o),
(595,630,o),
(585,631,cs),
(576,631,o),
(566,628,o),
(561,615,cs),
(420,242,ls),
(415,229,o),
(417,232,o),
(409,222,cs),
(402,213,o),
(408,196,o),
(422,196,cs)
);
}
);
width = 500;
}
);
},
{
export = 0;
glyphname = _N;
lastChange = "2023-04-05 05:53:40 +0000";
layers = (
{
layerId = "7EBE3D46-E53E-419E-A3EC-596DA2EA1E0D";
name = Regular;
shapes = (
{
closed = 1;
nodes = (
(485,221,l),
(139,693,l),
(61,668,l),
(60,474,l),
(152,472,l),
(469,79,l)
);
}
);
width = 600;
},
{
layerId = m002;
name = Regular;
shapes = (
{
closed = 1;
nodes = (
(485,221,l),
(139,693,l),
(61,668,l),
(60,474,l),
(152,472,l),
(469,79,l)
);
}
);
width = 500;
}
);
},
{
export = 0;
glyphname = _O;
lastChange = "2023-04-05 12:50:06 +0000";
layers = (
{
layerId = "7EBE3D46-E53E-419E-A3EC-596DA2EA1E0D";
name = Regular;
shapes = (
{
closed = 1;
nodes = (
(302,737,l),
(120,737,o),
(20,621,o),
(20,390,c),
(20,389,o),
(145,390,o),
(145,391,c),
(145,514,o),
(192,572,o),
(302,572,c)
);
}
);
width = 600;
},
{
layerId = m002;
name = Regular;
shapes = (
{
closed = 1;
nodes = (
(302,737,l),
(150,737,o),
(78,611,o),
(78,400,c),
(78,399,o),
(105,398,o),
(105,399,c),
(105,565,o),
(153,699,o),
(304,699,c)
);
}
);
width = 500;
}
);
},
{
export = 0;
glyphname = _P;
lastChange = "2023-04-05 05:53:40 +0000";
layers = (
{
layerId = "7EBE3D46-E53E-419E-A3EC-596DA2EA1E0D";
name = Regular;
shapes = (
{
closed = 1;
nodes = (
(500,543,o),
(400,660,o),
(261,662,c),
(186,663,o),
(110,663,o),
(70,663,c),
(70,483,l),
(97,500,o),
(188,499,o),
(252,497,c),
(336,497,o),
(376,452,o),
(376,405,c),
(375,338,o),
(343,292,o),
(252,292,c),
(187,290,o),
(97,302,o),
(70,319,c),
(70,205,l),
(110,198,o),
(186,189,o),
(261,190,c),
(400,192,o),
(500,277,o),
(500,402,c),
(500,403,o),
(500,404,o),
(500,405,c),
(500,408,l)
);
}
);
width = 600;
},
{
layerId = m002;
name = Regular;
shapes = (
{
closed = 1;
nodes = (
(500,543,o),
(400,660,o),
(261,662,c),
(186,663,o),
(110,663,o),
(70,663,c),
(70,483,l),
(97,500,o),
(188,499,o),
(252,497,c),
(336,497,o),
(376,452,o),
(376,405,c),
(375,338,o),
(343,292,o),
(252,292,c),
(187,290,o),
(97,302,o),
(70,319,c),
(70,205,l),
(110,198,o),
(186,189,o),
(261,190,c),
(400,192,o),
(500,277,o),
(500,402,c),
(500,403,o),
(500,404,o),
(500,405,c),
(500,408,l)
);
}
);
width = 500;
}
);
},
{
export = 0;
glyphname = _R_slash;
lastChange = "2023-04-05 05:53:40 +0000";
layers = (
{
layerId = "7EBE3D46-E53E-419E-A3EC-596DA2EA1E0D";
name = Regular;
shapes = (
{
closed = 1;
nodes = (
(134,465,l),
(376,-18,l),
(432,-19,ls),
(455,-19,o),
(488,4,o),
(470,42,cs),
(276,465,l)
);
}
);
width = 600;
},
{
layerId = m002;
name = Regular;
shapes = (
{
closed = 1;
nodes = (
(254,413,l),
(457,-19,l),
(462,-19,ls),
(486,-19,o),
(488,-12,o),
(470,25,cs),
(285,414,l)
);
}
);
width = 500;
}
);
},
{
export = 0;
glyphname = _X;
lastChange = "2023-04-05 06:30:12 +0000";
layers = (
{
layerId = "7EBE3D46-E53E-419E-A3EC-596DA2EA1E0D";
name = Regular;
shapes = (
{
closed = 1;
nodes = (
(411,657,l),
(303,474,l),
(192,658,l),
(20,658,l),
(241,308,l),
(265,256,o),
(305,263,o),
(318,263,cs),
(331,263,o),
(374,280,o),
(391,318,c),
(603,657,l)
);
}
);
width = 600;
},
{
layerId = m002;
name = Regular;
shapes = (
{
closed = 1;
nodes = (
(442,657,l),
(254,364,l),
(65,658,l),
(20,658,l),
(215,371,ls),
(246,325,o),
(245,329,o),
(258,329,cs),
(261,329,o),
(267,330,o),
(291,364,cs),
(493,657,l)
);
}
);
width = 500;
}
);
},
{
export = 0;
glyphname = _Z;
lastChange = "2023-04-05 13:12:24 +0000";
layers = (
{
layerId = "7EBE3D46-E53E-419E-A3EC-596DA2EA1E0D";
name = Regular;
shapes = (
{
closed = 1;
nodes = (
(1027,599,o),
(847,599,o),
(677,579,c),
(681,533,o),
(685,473,o),
(697,421,c),
(834,429,o),
(936,429,o),
(1003,423,c),
(778,-52,l),
(867,32,o),
(1120,400,o),
(1190,534,cs),
(1201,556,o),
(1185,572,o),
(1156,577,cs)
);
}
);
width = 600;
},
{
layerId = m002;
name = Regular;
shapes = (
{
closed = 1;
nodes = (
(1017,589,o),
(865,591,o),
(725,579,c),
(726,570,o),
(728,560,o),
(731,551,c),
(902,563,o),
(1007,562,o),
(1162,553,c),
(739,6,l),
(828,90,o),
(1092,408,o),
(1180,534,cs),
(1194,554,o),
(1175,574,o),
(1146,577,cs)
);
}
);
width = 500;
}
);
},
{
export = 0;
glyphname = _acute;
lastChange = "2023-04-05 05:53:40 +0000";
layers = (
{
layerId = "7EBE3D46-E53E-419E-A3EC-596DA2EA1E0D";
name = Regular;
shapes = (
{
closed = 1;
nodes = (
(273,737,o),
(241,671,o),
(215,618,cs),
(203,594,o),
(216,570,o),
(240,570,cs),
(286,570,ls),
(295,570,o),
(303,576,o),
(307,584,cs),
(378,746,ls),
(387,767,o),
(373,788,o),
(351,788,cs),
(305,788,ls),
(294,788,o),
(287,781,o),
(283,770,cs)
);
}
);
width = 600;
},
{
layerId = m002;
name = Regular;
shapes = (
{
closed = 1;
nodes = (
(288,687,o),
(254,611,o),
(228,558,cs),
(216,534,o),
(219,520,o),
(228,520,cs),
(236,520,ls),
(245,520,o),
(253,526,o),
(257,534,cs),
(335,706,ls),
(345,727,o),
(343,738,o),
(331,738,cs),
(320,738,ls),
(309,738,o),
(302,731,o),
(298,720,cs)
);
}
);
width = 500;
}
);
},
{
export = 0;
glyphname = _backslash;
lastChange = "2023-04-05 18:39:37 +0000";
layers = (
{
layerId = "7EBE3D46-E53E-419E-A3EC-596DA2EA1E0D";
name = Regular;
shapes = (
{
closed = 1;
nodes = (
(371,16,ls),
(375,7,o),
(383,0,o),
(393,0,cs),
(453,0,ls),
(474,0,o),
(490,18,o),
(480,38,cs),
(184,644,ls),
(180,653,o),
(172,660,o),
(162,660,cs),
(100,660,ls),
(79,660,o),
(63,642,o),
(73,622,cs)
);
}
);
width = 600;
},
{
layerId = m002;
name = Regular;
shapes = (
{
closed = 1;
nodes = (
(377,13,ls),
(381,4,o),
(382,0,o),
(392,0,cs),
(395,0,ls),
(406,0,o),
(411,8,o),
(401,28,cs),
(112,616,ls),
(108,625,o),
(105,629,o),
(95,629,cs),
(86,629,ls),
(75,629,o),
(73,621,o),
(83,601,cs)
);
}
);
width = 500;
}
);
},
{
export = 0;
glyphname = _bracket;
lastChange = "2023-04-23 06:29:12 +0000";
layers = (
{
layerId = "7EBE3D46-E53E-419E-A3EC-596DA2EA1E0D";
name = Regular;
shapes = (
{
closed = 1;
nodes = (
(426,-196,o),
(469,-174,o),
(496.569,-141.555,c),
(360.431,-14.567,o),
(296,121,o),
(296,270,c),
(296,419,o),
(359.285,552.265,o),
(496.507,681.688,c),
(470,725,o),
(429,747,o),
(393,750,c),
(225,593,o),
(170,435,o),
(170,272,c),
(170,97,o),
(241,-74,o),
(392,-211,c)
);
}
);
width = 600;
},
{
layerId = m002;
name = Regular;
shapes = (
{
closed = 1;
nodes = (
(399,-138,o),
(407,-132,o),
(414,-127,c),
(305,-7,o),
(250,126,o),
(250,270,cs),
(250,421,o),
(309,558,o),
(431,685,c),
(423,690,o),
(415,694,o),
(407,696,c),
(260,552,o),
(216,420,o),
(216,272,cs),
(216,120,o),
(269,-20,o),
(392,-143,c)
);
}
);
width = 500;
}
);
},
{
export = 0;
glyphname = _breve;
lastChange = "2023-04-05 05:53:40 +0000";
layers = (
{
layerId = "7EBE3D46-E53E-419E-A3EC-596DA2EA1E0D";
name = Regular;
shapes = (
{
closed = 1;
nodes = (
(100,768,o),
(100,757,cs),
(98,728,o),
(146,566,o),
(279,566,cs),
(383,566,o),
(402,679,o),
(277,679,cs),
(242,679,o),
(220,716,o),
(217,752,cs),
(216,767,o),
(207,779,o),
(192,779,cs),
(123,779,ls),
(114,779,o)
);
}
);
width = 600;
},
{
layerId = m002;
name = Regular;
shapes = (
{
closed = 1;
nodes = (
(96,695,o),
(100,684,cs),
(123,624,o),
(194,566,o),
(279,566,cs),
(313,566,o),
(332,590,o),
(277,590,cs),
(214,590,o),
(159,642,o),
(142,682,cs),
(136,697,o),
(133,699,o),
(122,699,cs),
(113,699,ls),
(104,699,o)
);
}
);
width = 500;
}
);
},
{
export = 0;
glyphname = _c;
lastChange = "2023-04-05 05:53:40 +0000";
layers = (
{
layerId = "7EBE3D46-E53E-419E-A3EC-596DA2EA1E0D";
name = Regular;
shapes = (
{
closed = 1;
nodes = (
(320,558,o),
(370,543,o),
(404,523,c),
(429,652,l),
(382,673,o),
(328.771,686.506,o),
(264.777,684.868,c),
(266,555,l)
);
}
);
width = 600;
},
{
layerId = m002;
name = Regular;
shapes = (
{
closed = 1;
nodes = (
(320,558,o),
(370,543,o),
(404,523,c),
(429,652,l),
(382,673,o),
(328.771,686.506,o),
(264.777,684.868,c),
(266,555,l)
);
}
);
width = 500;
}
);
},
{
export = 0;
glyphname = _cedilla_fragment;
lastChange = "2023-04-05 05:53:40 +0000";
layers = (
{
layerId = "7EBE3D46-E53E-419E-A3EC-596DA2EA1E0D";
name = Regular;
shapes = (
{
closed = 1;
nodes = (
(287,296.999,l),
(324.517,273.221,o),
(363.33,251.951,o),
(421.182,253.003,c),
(480.577,254.045,o),
(520.613,274.663,o),
(564.597,325.454,c),
(535.841,447.325,l),
(498.376,412.337,o),
(458.097,391.105,o),
(414.744,389.993,c),
(364.026,390,o),
(327.035,423.137,o),
(287,447.595,c)
);
}
);
width = 600;
},
{
layerId = m002;
name = Regular;
shapes = (
{
closed = 1;
nodes = (
(287,296.999,l),
(324.517,273.221,o),
(363.33,251.951,o),
(421.182,253.003,c),
(480.577,254.045,o),
(520.613,274.663,o),
(564.597,325.454,c),
(536,367,l),
(498,332,o),
(458,311,o),
(415,310,c),
(364,310,o),
(327,343,o),
(287,368,c)
);
}
);
width = 500;
}
);
},
{
export = 0;
glyphname = _circle;
lastChange = "2023-04-05 05:53:40 +0000";
layers = (
{
layerId = "7EBE3D46-E53E-419E-A3EC-596DA2EA1E0D";
name = Regular;
shapes = (
{
closed = 1;
nodes = (
(433.197,36,o),
(584,185.741,o),
(584,372,c),
(584,557.213,o),
(433.213,708,o),
(258,708,c),
(81.77,708,o),
(-68,557.167,o),
(-68,372,c),
(-68,185.787,o),
(81.787,36,o),
(258,36,c)
);
},
{
closed = 1;
nodes = (
(118.453,133,o),
(14,246.682,o),
(14,375,c),
(14,504.043,o),
(118.346,613,o),
(257,613,c),
(395.675,613,o),
(501,503.984,o),
(501,375,c),
(501,246.741,o),
(395.57,133,o),
(257,133,c)
);
}
);
width = 600;
},
{
layerId = m002;
name = Regular;
shapes = (
{
closed = 1;
nodes = (
(421,72,o),
(552,202,o),
(552,372,cs),
(552,541,o),
(421,672,o),
(258,672,cs),
(94,672,o),
(-36,541,o),
(-36,372,cs),
(-36,202,o),
(94,72,o),
(258,72,cs)
);
},
{
closed = 1;
nodes = (
(101,97,o),
(-18,227,o),
(-18,375,cs),
(-18,524,o),
(101,649,o),
(257,649,cs),
(413,649,o),
(533,524,o),
(533,375,cs),
(533,227,o),
(413,97,o),
(257,97,cs)
);
}
);
width = 500;
}
);
},
{
export = 0;
glyphname = _circum_part;
lastChange = "2023-04-05 05:53:40 +0000";
layers = (
{
layerId = "7EBE3D46-E53E-419E-A3EC-596DA2EA1E0D";
name = Regular;
shapes = (
{
closed = 1;
nodes = (
(251,261,ls),
(251,255,o),
(254,251,o),
(256,247,cs),
(312,145,ls),
(315,140,o),
(322,137,o),
(328,137,cs),
(398,137,ls),
(419,137,o),
(440,146,o),
(419,170,cs),
(317,287,ls),
(292,316,o),
(252,327,o),
(252,307,cs)
);
}
);
width = 600;
},
{
layerId = m002;
name = Regular;
shapes = (
{
closed = 1;
nodes = (
(258,251,ls),
(258,243,o),
(259,240,o),
(263,237,cs),
(382,145,ls),
(388,141,o),
(392,137,o),
(398,137,cs),
(418,137,ls),
(429,137,o),
(435,140,o),
(421,151,cs),
(286,257,ls),
(260,277,o),
(258,260,o),
(258,257,cs)
);
}
);
width = 500;
}
);
},
{
export = 0;
glyphname = _curve_B;
lastChange = "2023-04-05 06:29:37 +0000";
layers = (
{
layerId = "7EBE3D46-E53E-419E-A3EC-596DA2EA1E0D";
name = Regular;
shapes = (
{
closed = 1;
nodes = (
(108,658,o),
(52,658,o),
(22,657,c),
(22,482,l),
(44,500,o),
(119,502,o),
(207,500,c),
(287,497,o),
(308,462,o),
(308,433,c),
(308,404,o),
(281,373,o),
(181,373,c),
(76,373,l),
(54,312,l),
(227,312,l),
(368,312,o),
(442,386,o),
(442,469,c),
(442,605,o),
(352,655,o),
(206,657,c)
);
}
);
width = 600;
},
{
layerId = m002;
name = Regular;
shapes = (
{
closed = 1;
nodes = (
(58,638,o),
(82,633,o),
(22,628,c),
(22,582,l),
(74,600,o),
(69,602,o),
(157,600,c),
(237,597,o),
(362,579,o),
(362,464,c),
(362,363,o),
(221,332,o),
(121,332,c),
(36,332,l),
(34,302,l),
(137,302,l),
(298,302,o),
(392,381,o),
(392,464,c),
(392,600,o),
(302,635,o),
(156,637,c)
);
}
);
width = 500;
}
);
},
{
export = 0;
glyphname = _curve_cursive;
lastChange = "2023-04-05 17:35:43 +0000";
layers = (
{
layerId = "7EBE3D46-E53E-419E-A3EC-596DA2EA1E0D";
name = Regular;
shapes = (
{
closed = 1;
nodes = (
(20,235,l),
(20,86,o),
(140,-9,o),
(286,-9,c),
(378,-8,o),
(446,26,o),
(487,47,c),
(489,86,o),
(479,164,o),
(471,198,c),
(436,176,o),
(375,151,o),
(306,151,c),
(230,151,o),
(144,178,o),
(144,254,c),
(144,257,l),
(144,365,o),
(20,341,o),
(20,257,c)
);
}
);
width = 600;
},
{
layerId = m002;
name = Regular;
shapes = (
{
closed = 1;
nodes = (
(50,235,l),
(50,86,o),
(140,0,o),
(256,0,c),
(318,1,o),
(360,11,o),
(431,41,c),
(432,51,o),
(431,61,o),
(430,69,c),
(373,42,o),
(318,29,o),
(257,29,c),
(161,29,o),
(80,89,o),
(80,255,c),
(80,258,l),
(80,366,o),
(50,341,o),
(50,257,c)
);
}
);
width = 500;
}
);
},
{
export = 0;
glyphname = _curve_generic;
lastChange = "2023-04-05 05:53:40 +0000";
layers = (
{
layerId = "7EBE3D46-E53E-419E-A3EC-596DA2EA1E0D";
name = Regular;
shapes = (
{
closed = 1;
nodes = (
(335,407,o),
(460,384.949,o),
(460,499,c),
(460,619.435,o),
(392.446,723.018,o),
(251.928,721.999,c),
(88.807,720.905,l),
(111.196,600,l),
(233,600,l),
(316.89,600,o),
(335,560,o),
(335,498,c)
);
}
);
width = 600;
},
{
layerId = m002;
name = Regular;
shapes = (
{
closed = 1;
nodes = (
(335,464,o),
(363,442,o),
(363,499,c),
(363,619,o),
(272,633,o),
(222,632,c),
(-21,631,l),
(-9,600,l),
(223,600,l),
(307,600,o),
(335,560,o),
(335,498,c)
);
}
);
width = 500;
}
);
},
{
export = 0;
glyphname = _curve_lower;
lastChange = "2023-04-05 18:30:25 +0000";
layers = (
{
layerId = "7EBE3D46-E53E-419E-A3EC-596DA2EA1E0D";
name = Regular;
shapes = (
{
closed = 1;
nodes = (
(484,103,o),
(469,157,o),
(449,197,c),
(416,180,o),
(374,150,o),
(307,150,c),
(251,150,o),
(206,195,o),
(206,267,c),
(206,368,l),
(80,368,l),
(80,197,l),
(80,63,o),
(164,-11,o),
(292,-11,c),
(398,-11,o),
(447,14,o),
(489,42,c)
);
}
);
width = 600;
},
{
layerId = m002;
name = Regular;
shapes = (
{
closed = 1;
nodes = (
(435,57,o),
(431,67,o),
(425,77,c),
(382,50,o),
(331,25,o),
(264,25,c),
(188,25,o),
(137,80,o),
(137,194,c),
(137,488,l),
(110,488,l),
(110,184,l),
(110,80,o),
(145,-5,o),
(263,-5,c),
(339,-5,o),
(387,9,o),
(439,47,c)
);
}
);
width = 500;
}
);
},
{
export = 0;
glyphname = _curve_lower_big;
lastChange = "2023-04-05 05:53:40 +0000";
layers = (
{
layerId = "7EBE3D46-E53E-419E-A3EC-596DA2EA1E0D";
name = Regular;
shapes = (
{
closed = 1;
nodes = (
(-322,108,l),
(-405,104,o),
(-439,160,o),
(-439,241,c),
(-439,261,l),
(-439,369,o),
(-553,345,o),
(-553,261,c),
(-553,222,l),
(-553,70,o),
(-453,-27,o),
(-320,-22,c)
);
},
{
alignment = -1;
pos = (-609,663);
ref = _c;
scale = (1,-1);
}
);
width = 600;
},
{
layerId = m002;
name = Regular;
shapes = (
{
closed = 1;
nodes = (
(-322,108,l),
(-405,104,o),
(-439,160,o),
(-439,241,c),
(-439,261,l),
(-439,369,o),
(-553,345,o),
(-553,261,c),
(-553,222,l),
(-553,70,o),
(-453,-27,o),
(-320,-22,c)
);
},
{
alignment = -1;
pos = (-609,663);
ref = _c;
scale = (1,-1);
}
);
width = 500;
}
);
},
{
export = 0;
glyphname = _d_curl;
lastChange = "2023-04-05 05:53:40 +0000";
layers = (
{
layerId = "7EBE3D46-E53E-419E-A3EC-596DA2EA1E0D";
name = Regular;
shapes = (
{
closed = 1;
nodes = (
(261,530.675,l),
(163.678,536.899,o),
(128.798,452.794,o),
(84.758,363.066,c),
(126.866,275.947,l),
(185.414,392.928,o),
(191.529,399.986,o),
(261,398.913,c)
);
}
);
width = 600;
},
{
layerId = m002;
name = Regular;
shapes = (
{
closed = 1;
nodes = (
(261,530.675,l),
(163.678,536.899,o),
(128.798,452.794,o),
(84.758,363.066,c),
(126.866,275.947,l),
(185.414,392.928,o),
(191.529,399.986,o),
(261,398.913,c)
);
}
);
width = 500;
}
);
},
{
export = 0;
glyphname = _dot;
lastChange = "2023-04-05 05:53:40 +0000";
layers = (
{
layerId = "7EBE3D46-E53E-419E-A3EC-596DA2EA1E0D";
name = Regular;
shapes = (
{
closed = 1;
nodes = (
(161,580,o),
(210,618,o),
(210,679,c),
(210,739,o),
(161,779,o),
(116,779,c),
(68,779,o),
(20,739,o),
(20,679,c),
(20,618,o),
(69,580,o),
(116,580,c)
);
}
);
width = 600;
},
{
layerId = m002;
name = Regular;
shapes = (
{
closed = 1;
nodes = (
(165,585,o),
(185,601,o),
(185,625,c),
(185,651,o),
(165,667,o),
(146,667,c),
(127,667,o),
(107,651,o),
(107,625,c),
(107,601,o),
(127,585,o),
(146,585,c)
);
}
);
width = 500;
}
);
},
{
export = 0;
glyphname = _ending_cursive;
lastChange = "2023-04-05 05:53:40 +0000";
layers = (
{
layerId = "7EBE3D46-E53E-419E-A3EC-596DA2EA1E0D";
name = Regular;
shapes = (
{
closed = 1;
nodes = (
(269.778,-25.78,l),
(346.663,-29.052,o),
(399.94,4.517,o),
(443.289,55.558,c),
(383.162,161.114,l),
(350.024,122.47,o),
(313.435,100.467,o),
(271.226,104.466,c)
);
}
);
width = 600;
},
{
layerId = m002;
name = Regular;
shapes = (
{
closed = 1;
nodes = (
(269.778,-25.78,l),
(346.663,-29.052,o),
(399.94,4.517,o),
(443.289,55.558,c),
(383.162,161.114,l),
(350.024,122.47,o),
(313.435,100.467,o),
(271.226,104.466,c)
);
}
);
width = 500;
}
);
},
{
export = 0;
glyphname = _exclamation;
lastChange = "2023-04-05 05:53:40 +0000";
layers = (
{
layerId = "7EBE3D46-E53E-419E-A3EC-596DA2EA1E0D";
name = Regular;
shapes = (
{
closed = 1;
nodes = (
(63,241,ls),
(64,228,o),
(74,218,o),
(87,218,cs),
(172,218,ls),
(185,218,o),
(195,228,o),
(196,241,cs),
(225,691,ls),
(226,706,o),
(214,719,o),
(199,719,cs),
(60,719,ls),
(45,719,o),
(33,706,o),
(34,691,cs)
);
}
);
width = 600;
},
{
layerId = m002;
name = Regular;
shapes = (
{
closed = 1;
nodes = (
(153,234,ls),
(153,221,o),
(159,218,o),
(172,218,cs),
(179,218,ls),
(192,218,o),
(196,221,o),
(196,234,cs),
(197,701,ls),
(197,716,o),
(196,719,o),
(181,719,cs),
(172,719,ls),
(157,719,o),
(156,716,o),
(156,701,cs)
);
}
);
width = 500;
}
);
},
{
export = 0;
glyphname = _f_integral;
lastChange = "2023-04-05 18:12:49 +0000";
layers = (
{
layerId = "7EBE3D46-E53E-419E-A3EC-596DA2EA1E0D";
name = Regular;
shapes = (
{
closed = 1;
nodes = (
(517,661,o),
(465,673,o),
(363,673,c),
(224,673,o),
(117,581,o),
(117,405,c),
(117,226,l),
(242,226,l),
(242,353,l),
(242,463,o),
(292,506,o),
(377,507,c),
(466,508,o),
(523,496,o),
(563,486,c),
(574,538,o),
(580,597,o),
(576,644,c)
);
}
);
width = 600;
},
{
layerId = m002;
name = Regular;
shapes = (
{
closed = 1;
nodes = (
(436,666,o),
(385,678,o),
(313,678,cs),
(224,678,o),
(117,641,o),
(117,505,c),
(117,266,l),
(144,266,l),
(144,473,l),
(144,578,o),
(201,638,o),
(313,638,cs),
(382,638,o),
(444,627,o),
(502,609,c),
(505,620,o),
(505,632,o),
(506,645,c)
);
}
);
width = 500;
}
);
},
{
export = 0;
glyphname = _fraction_slash;
lastChange = "2023-04-05 05:53:40 +0000";
layers = (
{
layerId = "7EBE3D46-E53E-419E-A3EC-596DA2EA1E0D";
name = Regular;
shapes = (
{
closed = 1;
nodes = (
(367,660,l),
(140,1,l),
(215,1,l),
(434,660,l)
);
}
);
width = 600;
},
{
layerId = m002;
name = Regular;
shapes = (
{
closed = 1;
nodes = (
(396,632,l),
(177,1,l),
(197,1,l),
(418,632,l)
);
}
);
width = 500;
}
);
},
{
export = 0;
glyphname = _g_loop;
lastChange = "2023-04-05 05:53:40 +0000";
layers = (
{
layerId = "7EBE3D46-E53E-419E-A3EC-596DA2EA1E0D";
name = Regular;
shapes = (
{
closed = 1;
nodes = (
(211.003,-74.506,l),
(229.503,-176,l),
(229.002,-176,o),
(228.501,-176,o),
(228,-176,c),
(361.303,-176,o),
(419.704,-115.228,o),
(421.997,-15.46,c),
(422,15.217,o),
(309,15.217,o),
(309,-15,c),
(309,-37.808,o),
(291.79,-55,o),
(227,-55,c),
(225,-55,o),
(223,-55,o),
(221,-55,c)
);
}
);
width = 600;
},
{
layerId = m002;
name = Regular;
shapes = (
{
closed = 1;
nodes = (
(211.003,-74.506,l),
(229.503,-176,l),
(229.002,-176,o),
(228.501,-176,o),
(228,-176,c),
(361.303,-176,o),
(419.704,-115.228,o),
(421.997,-15.46,c),
(422,15.217,o),
(309,15.217,o),
(309,-15,c),
(309,-37.808,o),
(291.79,-55,o),
(227,-55,c),
(225,-55,o),
(223,-55,o),
(221,-55,c)
);
}
);
width = 500;
}
);
},
{
export = 0;
glyphname = _g_two_storey;
lastChange = "2023-04-05 05:53:40 +0000";
layers = (
{
layerId = "7EBE3D46-E53E-419E-A3EC-596DA2EA1E0D";
name = Regular;
shapes = (
{
closed = 1;
nodes = (
(280.998,412.556,l),
(262.548,523,l),
(263.032,523,o),
(263.516,523,o),
(264,523,c),
(122.177,523,o),
(52.201,434.966,o),
(50.002,329.417,c),
(50,298.682,o),
(163,299.884,o),
(163,330,c),
(163,362.566,o),
(190.505,393,o),
(265,393,c),
(267,393,o),
(269,393,o),
(271,393,c)
);
}
);
width = 600;
},
{
layerId = m002;
name = Regular;
shapes = (
{
closed = 1;
nodes = (
(280.998,412.556,l),
(262.548,523,l),
(263.032,523,o),
(263.516,523,o),
(264,523,c),
(122.177,523,o),
(52.201,434.966,o),
(50.002,329.417,c),
(50,298.682,o),
(163,299.884,o),
(163,330,c),
(163,362.566,o),
(190.505,393,o),
(265,393,c),
(267,393,o),
(269,393,o),
(271,393,c)
);
}
);
width = 500;
}
);
},
{
export = 0;
glyphname = _hmn;
lastChange = "2023-04-05 17:27:10 +0000";
layers = (
{
layerId = "7EBE3D46-E53E-419E-A3EC-596DA2EA1E0D";
name = Regular;
shapes = (
{
closed = 1;
nodes = (
(175,509,o),
(110,359,o),
(101,237,c),
(154,206,l),
(155,297,o),
(183,350,o),
(258,350,c),
(342,350,o),
(364,290,o),
(364,209,c),
(364,-9,ls),
(487,-9,l),
(487,294,l),
(485,439,o),
(418,509,o),
(284,509,c)
);
}
);
width = 600;
},
{
layerId = m002;
name = Regular;
shapes = (
{
closed = 1;
nodes = (
(124,500,o),
(67,395,o),
(58,273,c),
(73,272,l),
(74,363,o),
(139,470,o),
(240,470,c),
(342,470,o),
(388,394,o),
(388,273,c),
(388,-9,ls),
(415,-9,l),
(415,270,l),
(413,425,o),
(356,500,o),
(242,500,c)
);
}
);
width = 500;
}
);
},
{
export = 0;
glyphname = _k_cyr;
lastChange = "2023-04-05 05:53:40 +0000";
layers = (
{
layerId = "7EBE3D46-E53E-419E-A3EC-596DA2EA1E0D";
name = Regular;
shapes = (
{
closed = 1;
nodes = (
(105.016,207.125,l),
(251.235,205.983,l),
(279.16,246.194,l),
(496.835,518,l),
(345.015,518,l),
(191.988,314.964,l),
(132.107,313.895,l)
);
}
);
width = 600;
},
{
layerId = m002;
name = Regular;
shapes = (
{
closed = 1;
nodes = (
(105.016,207.125,l),
(251.235,205.983,l),
(279.16,246.194,l),
(496.835,518,l),
(345.015,518,l),
(191.988,314.964,l),
(132.107,313.895,l)
);
}
);
width = 500;
}
);
},
{
export = 0;
glyphname = _less_equal;
lastChange = "2023-04-05 05:53:40 +0000";
layers = (
{
layerId = "7EBE3D46-E53E-419E-A3EC-596DA2EA1E0D";
name = Regular;
shapes = (
{
closed = 1;
nodes = (
(542,373,o),
(545,409,o),
(500,429.136,cs),
(72,626,l),
(72,482,l),
(382,371,l),
(500,372,l)
);
}
);
width = 600;
},
{
layerId = m002;
name = Regular;
shapes = (
{
closed = 1;
nodes = (
(532,382,o),
(544,399,o),
(500,420,cs),
(72,626,l),
(72,572,l),
(502,380,l),
(510,381,l)
);
}
);
width = 500;
}
);
},
{
export = 0;
glyphname = _m_curve;
lastChange = "2023-04-05 05:53:40 +0000";
layers = (
{
layerId = "7EBE3D46-E53E-419E-A3EC-596DA2EA1E0D";
name = Regular;
shapes = (
{
closed = 1;
nodes = (
(147,511,o),
(100,408,o),
(91,286,c),
(123,100,l),
(125,191,o),
(122,389,o),
(226,389,c),
(270,389,o),
(276,330,o),
(276,249,c),
(276,0,ls),
(389,0,l),
(389,293,l),
(387,438,o),
(340,511,o),
(246,511,c)
);
}
);
width = 600;
},
{
layerId = m002;
name = Regular;
shapes = (
{
closed = 1;
nodes = (
(147,511,o),
(100,408,o),
(91,286,c),
(123,100,l),
(125,191,o),
(122,389,o),
(226,389,c),
(270,389,o),
(276,330,o),
(276,249,c),
(276,0,ls),
(389,0,l),
(389,293,l),
(387,438,o),
(340,511,o),
(246,511,c)
);
}
);
width = 500;
}
);
},
{
export = 0;
glyphname = _m_cyr;
lastChange = "2023-04-05 05:53:40 +0000";
layers = (
{
layerId = "7EBE3D46-E53E-419E-A3EC-596DA2EA1E0D";
name = Regular;
shapes = (
{
closed = 1;
nodes = (
(159.751,520,l),
(10,28.403,l),
(10,-19,l),
(123.882,-19,l),
(199.882,282,l),
(225.883,282,l),
(194.631,520,l)
);
}
);
width = 600;
},
{
layerId = m002;
name = Regular;
shapes = (
{
closed = 1;
nodes = (
(159.751,520,l),
(10,28.403,l),
(10,-19,l),
(123.882,-19,l),
(199.882,282,l),
(225.883,282,l),
(194.631,520,l)
);
}
);
width = 500;
}
);
},
{
export = 0;
glyphname = _m_cyr_2;
lastChange = "2023-04-23 06:35:08 +0000";
layers = (
{
layerId = "7EBE3D46-E53E-419E-A3EC-596DA2EA1E0D";
name = Regular;
shapes = (
{
closed = 1;
nodes = (
(417,123,o),
(399,146,o),
(399,255,cs),
(399,290,o),
(403,288,o),
(384,322,cs),
(320,435,ls),
(284,499,o),
(259,518,o),
(214,518,cs),
(170,518,o),
(137,483,o),
(137,421,cs),
(137,145,ls),
(137,135,o),
(144,126,o),
(154,123,cs),
(224,101,ls),
(244,95,o),
(262,108,o),
(262,128,cs),
(262,275,l),
(320,176,ls),
(340,142,o),
(363,123,o),
(393,123,cs)
);
}
);
width = 600;
},
{
layerId = m002;
name = Regular;
shapes = (
{
closed = 1;
nodes = (
(355,193,o),
(361,210,o),
(354,219,cs),
(346,229,o),
(341,226,o),
(333,239,cs),
(180,503,ls),
(172,516,o),
(165,519,o),
(156,519,cs),
(146,518,o),
(137,512,o),
(137,489,cs),
(137,133,ls),
(137,123,o),
(139,119,o),
(150,111,cs),
(154,108,ls),
(170,96,o),
(163,380,o),
(163,400,cs),
(163,477,l),
(304,221,ls),
(317,197,o),
(331,193,o),
(341,193,cs)
);
}
);
width = 500;
}
);
},
{
export = 0;
glyphname = _multiply;
lastChange = "2023-04-05 05:53:40 +0000";
layers = (
{
layerId = "7EBE3D46-E53E-419E-A3EC-596DA2EA1E0D";
name = Regular;
shapes = (
{
closed = 1;
nodes = (
(433.661,279.448,l),
(198.363,530.068,l),
(114.135,458.066,l),
(353.86,199.646,l)
);
}
);
width = 600;
},
{
layerId = m002;
name = Regular;
shapes = (
{
closed = 1;
nodes = (
(433.661,279.448,l),
(198.363,530.068,l),
(174,511,l),
(411,255,l)
);
}
);
width = 500;
}
);
},
{
export = 0;
glyphname = _o_curve;
lastChange = "2023-04-05 17:38:53 +0000";
layers = (
{
layerId = "7EBE3D46-E53E-419E-A3EC-596DA2EA1E0D";
name = Regular;
shapes = (
{
closed = 1;
nodes = (
(253,516,l),
(90,516,o),
(-14,405,o),
(-16,247,c),
(97,246,l),
(97,333,o),
(181,355,o),
(253,355,c)
);
}
);
width = 600;
},
{
layerId = m002;
name = Regular;
shapes = (
{
closed = 1;
nodes = (
(253,503,l),
(110,503,o),
(36,405,o),
(34,247,c),
(64,246,l),
(64,402,o),
(147,473,o),
(253,473,c)
);
}
);
width = 500;
}
);
},
{
export = 0;
glyphname = _percent;
lastChange = "2023-04-05 05:53:40 +0000";
layers = (
{
layerId = "7EBE3D46-E53E-419E-A3EC-596DA2EA1E0D";
name = Regular;
shapes = (
{
closed = 1;
nodes = (
(199,263,o),
(255,320,o),
(255,392,c),
(255,462,o),
(199,519,o),
(137,519,c),
(74,519,o),
(17,462,o),
(17,392,c),
(17,320,o),
(74,263,o),
(137,263,c)
);
},
{
closed = 1;
nodes = (
(109,350,o),
(96,370,o),
(96,388,c),
(96,406,o),
(109,424,o),
(139,424,c),
(169,424,o),
(180,406,o),
(180,388,c),
(180,370,o),
(169,350,o),
(139,350,c)
);
}
);
width = 600;
},
{
layerId = m002;
name = Regular;
shapes = (
{
closed = 1;
nodes = (
(199,263,o),
(255,320,o),
(255,392,c),
(255,462,o),
(199,519,o),
(137,519,c),
(74,519,o),
(17,462,o),
(17,392,c),
(17,320,o),
(74,263,o),
(137,263,c)
);
},
{
closed = 1;
nodes = (
(72,298,o),
(44,349,o),
(44,394,c),
(44,441,o),
(72,487,o),
(136,487,c),
(203,487,o),
(228,441,o),
(228,394,c),
(228,349,o),
(203,298,o),
(136,298,c)
);
}
);
width = 500;
}
);
},
{
export = 0;
glyphname = _qtail;
lastChange = "2023-04-05 05:53:40 +0000";
layers = (
{
anchors = (
{
name = _tailq;
pos = (467,92);
}
);
layerId = "7EBE3D46-E53E-419E-A3EC-596DA2EA1E0D";
name = Regular;
shapes = (
{
closed = 1;
nodes = (
(310,195.839,l),
(466.917,-19,l),
(557,-19,l),
(557,32.877,l),
(354.226,323,l),
(310,323,l)
);
}
);
width = 600;
},
{
anchors = (
{
name = _tailq;
pos = (467,92);
}
);
layerId = m002;
name = Regular;
shapes = (
{
closed = 1;
nodes = (
(310,195.839,l),
(466.917,-19,l),
(557,-19,l),
(557,32.877,l),
(354.226,323,l),
(310,323,l)
);
}
);
width = 500;
}
);
},
{
export = 0;
glyphname = _quote;
lastChange = "2023-04-05 05:53:40 +0000";
layers = (
{
layerId = "7EBE3D46-E53E-419E-A3EC-596DA2EA1E0D";
name = Regular;
shapes = (
{
closed = 1;
nodes = (
(120.666,-16.448,l),
(127.74,-18.145,o),
(112.137,-60.65,o),
(74.567,-132.445,c),
(140.919,-146.562,l),
(143,-147,l),
(145.915,-147,o),
(243.203,-28.964,o),
(228.485,96.242,c),
(117.317,19.456,l)
);
}
);
width = 600;
},
{
layerId = m002;
name = Regular;
shapes = (
{
closed = 1;
nodes = (
(136,16,ls),
(157,10,o),
(149,-15,o),
(114,-40,c),
(151,-47,l),
(153,-47,l),
(156,-47,o),
(202,-10,o),
(203,74,c),
(123,20,l)
);
}
);
width = 500;
}
);
},
{
export = 0;
glyphname = _quotes;
lastChange = "2023-04-05 05:53:40 +0000";
layers = (
{
layerId = "7EBE3D46-E53E-419E-A3EC-596DA2EA1E0D";
name = Regular;
shapes = (
{
closed = 1;
nodes = (
(113,-25,o),
(126,-60,o),
(96,-99,c),
(151,-117,l),
(154,-118,l),
(157,-118,o),
(232,-37,o),
(232,68,c),
(79,-6,l)
);
},
{
pos = (23,-608);
ref = _dot;
}
);
width = 600;
},
{
layerId = m002;
name = Regular;
shapes = (
{
closed = 1;
nodes = (
(162,-27,o),
(165,-37,o),
(152,-54,c),
(174,-60,l),
(176,-60,l),
(176,-60,o),
(213,-20,o),
(206,19,c),
(149,-17,l)
);
},
{
pos = (23,-608);
ref = _dot;
}
);
width = 500;
}
);
},
{
export = 0;
glyphname = _slash;
lastChange = "2023-04-22 14:15:59 +0000";
layers = (
{
layerId = "7EBE3D46-E53E-419E-A3EC-596DA2EA1E0D";
name = Regular;
shapes = (
{
closed = 1;
nodes = (
(269,677,o),
(240,648,o),
(227,606,cs),
(36,0,l),
(93,0,o),
(149,0,o),
(206,0,c),
(300,410,ls),
(308,445,o),
(325,497,o),
(351,497,cs),
(374,497,o),
(330,677,o),
(309,677,cs)
);
}
);
width = 600;
},
{
layerId = m002;
name = Regular;
shapes = (
{
closed = 1;
nodes = (
(292,657,o),
(283,648,o),
(279,633,cs),
(92,0,l),
(119,0,o),
(92,0,o),
(127,0,c),
(300,606,ls),
(303,618,o),
(305,623,o),
(311,623,cs),
(314,623,o),
(310,657,o),
(306,657,cs)
);
}
);
width = 500;
}
);
},
{
export = 0;
glyphname = _slash_diacritics;
lastChange = "2023-04-05 05:53:40 +0000";
layers = (
{
layerId = "7EBE3D46-E53E-419E-A3EC-596DA2EA1E0D";
name = Regular;
shapes = (
{
closed = 1;
nodes = (
(320.38,362.824,l),
(317.467,489.539,l),
(3.183,373.413,l),
(1.73,244.132,l)
);
}
);
width = 600;
},
{
layerId = m002;
name = Regular;
shapes = (
{
closed = 1;
nodes = (
(320.38,362.824,l),
(317,400,l),
(3,283,l),
(1.73,244.132,l)
);
}
);
width = 500;
}
);
},
{
export = 0;
glyphname = _square_bracket;
lastChange = "2023-04-05 05:53:40 +0000";
layers = (
{
layerId = "7EBE3D46-E53E-419E-A3EC-596DA2EA1E0D";
name = Regular;
shapes = (
{
closed = 1;
nodes = (
(300,721,l),
(93,721,l),
(93,-221,l),
(300,-221,l),
(300,-97,l),
(210,-97,l),
(210,596,l),
(300,596,l)
);
}
);
width = 600;
},
{
layerId = m002;
name = Regular;
shapes = (
{
closed = 1;
nodes = (
(259,675,l),
(134,675,l),
(134,-175,l),
(259,-175,l),
(259,-143,l),
(169,-143,l),
(169,642,l),
(259,642,l)
);
}
);
width = 500;
}
);
},
{
export = 0;
glyphname = _three;
lastChange = "2023-04-05 05:53:40 +0000";
layers = (
{
layerId = "7EBE3D46-E53E-419E-A3EC-596DA2EA1E0D";
name = Regular;
shapes = (
{
closed = 1;
nodes = (
(294,324,o),
(489,329,o),
(489,482,cs),
(489,603,o),
(406,673,o),
(255,673,cs),
(207,673,o),
(127,660,o),
(68,616,c),
(93,469,l),
(132,489,o),
(183,513,o),
(244,513,c),
(329,513,o),
(367,492,o),
(367,454,c),
(367,402,o),
(284,386,o),
(162,386,c),
(162,309,l)
);
}
);
width = 600;
},
{
layerId = m002;
name = Regular;
shapes = (
{
closed = 1;
nodes = (
(374,331,o),
(489,339,o),
(489,492,cs),
(489,595,o),
(406,655,o),
(255,655,cs),
(207,655,o),
(127,642,o),
(68,598,c),
(83,571,l),
(123,599,o),
(183,624,o),
(244,624,c),
(329,624,o),
(457,604,o),
(457,488,c),
(457,373,o),
(364,346,o),
(162,346,c),
(162,316,l)
);
}
);
width = 500;
}
);
},
{
export = 0;
glyphname = _tile;
lastChange = "2023-04-05 05:53:40 +0000";
layers = (
{
layerId = "7EBE3D46-E53E-419E-A3EC-596DA2EA1E0D";
name = Regular;
shapes = (
{
closed = 1;
nodes = (
(322,278,o),
(427,275,cs),
(467,274,o),
(507,285,o),
(541,305,c),
(518,433,l),
(490,418,o),
(434,401,o),
(411,402,cs),
(330,406,o),
(286,451,o),
(205,455,cs),
(165,457,o),
(111,450,o),
(73,416,c),
(100,288,l),
(138,323,o),
(198,330,o),
(221,328,cs),
(318,320,o)
);
}
);
width = 600;
},
{
layerId = m002;
name = Regular;
shapes = (
{
closed = 1;
nodes = (
(322,278,o),
(427,275,cs),
(467,274,o),
(507,285,o),
(541,305,c),
(528,344,l),
(500,329,o),
(444,312,o),
(421,313,cs),
(340,317,o),
(296,362,o),
(215,366,cs),
(175,368,o),
(121,361,o),
(83,327,c),
(100,288,l),
(138,323,o),
(198,330,o),
(221,328,cs),
(318,320,o)
);
}
);
width = 500;
}
);
},
{
export = 0;
glyphname = _two_question;
lastChange = "2023-04-05 05:53:40 +0000";
layers = (
{
layerId = "7EBE3D46-E53E-419E-A3EC-596DA2EA1E0D";
name = Regular;
shapes = (
{
closed = 1;
nodes = (
(63,73,c),
(106,20,l),
(163,20,l),
(163,212,o),
(484,270,o),
(484,498,c),
(484,635,o),
(406,736,o),
(260,736,c),
(212,736,o),
(132,736,o),
(73,692,c),
(98,568,l),
(137,588,o),
(198,602,o),
(259,602,c),
(342,602,o),
(362,547,o),
(362,500,c),
(362,312,o),
(69,282,o)
);
}
);
width = 600;
},
{
layerId = m002;
name = Regular;
shapes = (
{
closed = 1;
nodes = (
(63,73,c),
(106,20,l),
(163,20,l),
(163,212,o),
(484,270,o),
(484,498,c),
(484,635,o),
(406,736,o),
(260,736,c),
(212,736,o),
(132,736,o),
(73,692,c),
(98,568,l),
(137,588,o),
(198,602,o),
(259,602,c),
(342,602,o),
(362,547,o),
(362,500,c),
(362,312,o),
(69,282,o)
);
}
);
width = 500;
}
);
},
{
export = 0;
glyphname = _u_cyr;
lastChange = "2023-04-05 05:53:40 +0000";
layers = (
{
layerId = "7EBE3D46-E53E-419E-A3EC-596DA2EA1E0D";
name = Regular;
shapes = (
{
closed = 1;
nodes = (
(70,292.444,o),
(155.906,211,o),
(274,211,c),
(385,212,l),
(380,337,l),
(338,336,o),
(319.366,335.792,o),
(273.476,337.977,c),
(228.131,339.994,o),
(182,357.293,o),
(182,414,c),
(182,502.571,o),
(70,554.861,o),
(70,414,c)
);
}
);
width = 600;
},
{
layerId = m002;
name = Regular;
shapes = (
{
closed = 1;
nodes = (
(70,292.444,o),
(155.906,211,o),
(274,211,c),
(385,212,l),
(380,337,l),
(338,336,o),
(319.366,335.792,o),
(273.476,337.977,c),
(228.131,339.994,o),
(182,357.293,o),
(182,414,c),
(182,502.571,o),
(70,554.861,o),
(70,414,c)
);
}
);
width = 500;
}
);
},
{
export = 0;
glyphname = _ve_cyr;
lastChange = "2023-05-29 20:16:46 +0000";
layers = (
{
layerId = "7EBE3D46-E53E-419E-A3EC-596DA2EA1E0D";
name = Regular;
shapes = (
{
closed = 1;
nodes = (
(99.243,439.381,l),
(109,415,l),
(120,415,o),
(244,415,o),
(255,415,c),
(419.923,417.062,o),
(480,458,o),
(480,559,c),
(480,661,o),
(399,703,o),
(261,702,c),
(98,701,l),
(120,570,l),
(282,570,l),
(338,570,o),
(354,555,o),
(354,528,c),
(354,497,o),
(339,474,o),
(279,474,c),
(114,474,l)
);
}
);
width = 600;
},
{
layerId = m002;
name = Regular;
shapes = (
{
closed = 1;
nodes = (
(99.243,439.381,l),
(109,443,l),
(120,443,o),
(244,443,o),
(255,443,c),
(420,445,o),
(480,482,o),
(480,563,c),
(480,665,o),
(399,703,o),
(261,702,c),
(98,701,l),
(120,670,l),
(282,670,l),
(378,670,o),
(454,650,o),
(454,566,cs),
(454,482,o),
(339,464,o),
(279,464,c),
(114,464,l)
);
}
);
width = 500;
}
);
},
{
export = 0;
glyphname = _w_slash;
lastChange = "2023-04-05 05:53:40 +0000";
layers = (
{
layerId = "7EBE3D46-E53E-419E-A3EC-596DA2EA1E0D";
name = Regular;
shapes = (
{
closed = 1;
nodes = (
(301,287,l),
(268,287,l),
(135,699,l),
(14,699,l),
(217,2,l),
(231,2,l)
);
}
);
width = 600;
},
{
layerId = m002;
name = Regular;
shapes = (
{
closed = 1;
nodes = (
(301,287,l),
(268,287,l),
(135,699,l),
(14,699,l),
(217,2,l),
(231,2,l)
);
}
);
width = 500;
}
);
},
{
export = 0;
glyphname = _w_slash_2;
lastChange = "2023-04-05 05:53:40 +0000";
layers = (
{
layerId = "7EBE3D46-E53E-419E-A3EC-596DA2EA1E0D";
name = Regular;
shapes = (
{
closed = 1;
nodes = (
(275,13,l),
(382,404,l),
(392,403,l),
(383,690,l),
(335,690,l),
(186,168,l),
(237,-19,l)
);
}
);
width = 600;
},
{
layerId = m002;
name = Regular;
shapes = (
{
closed = 1;
nodes = (
(275,13,l),
(382,404,l),
(392,403,l),
(383,690,l),
(335,690,l),
(186,168,l),
(237,-19,l)
);
}
);
width = 500;
}
);
},
{
export = 0;
glyphname = _w_small_slash;
lastChange = "2023-04-05 05:53:40 +0000";
layers = (
{
layerId = "7EBE3D46-E53E-419E-A3EC-596DA2EA1E0D";
name = Regular;
shapes = (
{
closed = 1;
nodes = (
(255,208,l),
(249,208,l),
(153,500,l),
(24,500,l),
(201,10,l),
(216,10,l)
);
}
);
width = 600;
},
{
layerId = m002;
name = Regular;
shapes = (
{
closed = 1;
nodes = (
(255,208,l),
(249,208,l),
(153,500,l),
(24,500,l),
(201,10,l),
(216,10,l)
);
}
);
width = 500;
}
);
},
{
export = 0;
glyphname = _w_small_slash_2;
lastChange = "2023-04-05 05:53:40 +0000";
layers = (
{
layerId = "7EBE3D46-E53E-419E-A3EC-596DA2EA1E0D";
name = Regular;
shapes = (
{
closed = 1;
nodes = (
(408,173,l),
(313,490,l),
(255,490,l),
(239,285,l),
(259,285,l),
(344,15,l),
(409,0,l)
);
}
);
width = 600;
},
{
layerId = m002;
name = Regular;
shapes = (
{
closed = 1;
nodes = (
(408,173,l),
(313,490,l),
(255,490,l),
(239,285,l),
(259,285,l),
(344,15,l),
(409,0,l)
);
}
);
width = 500;
}
);
},
{
export = 0;
glyphname = _x;
lastChange = "2023-04-05 05:53:40 +0000";
layers = (
{
layerId = "7EBE3D46-E53E-419E-A3EC-596DA2EA1E0D";
name = Regular;
shapes = (
{
closed = 1;
nodes = (
(348,193.284,l),
(480,0,l),
(626,0,l),
(392.191,331,l),
(368,281,l)
);
}
);
width = 600;
},
{
layerId = m002;
name = Regular;
shapes = (
{
closed = 1;
nodes = (
(428,193,l),
(570,0,l),
(616,0,l),
(392,330,l),
(368,281,l)
);
}
);
width = 500;
}
);
},
{
export = 0;
glyphname = _x_;
lastChange = "2023-04-05 18:25:08 +0000";
layers = (
{
layerId = "7EBE3D46-E53E-419E-A3EC-596DA2EA1E0D";
name = Regular;
shapes = (
{
closed = 1;
nodes = (
(150,245,l),
(167,215,o),
(230,202,o),
(243,202,cs),
(256,202,o),
(315,205,o),
(339,246,c),
(521,498,l),
(339,498,l),
(245,355,l),
(150,497,l),
(-32,497,l)
);
}
);
width = 600;
},
{
layerId = m002;
name = Regular;
shapes = (
{
closed = 1;
nodes = (
(204,271,ls),
(224,244,o),
(230,227,o),
(243,227,cs),
(256,227,o),
(254,234,o),
(282,271,cs),
(454,498,l),
(418,498,l),
(245,270,l),
(79,497,l),
(39,497,l)
);
}
);
width = 500;
}
);
},
{
export = 0;
glyphname = _y;
lastChange = "2023-05-29 20:20:14 +0000";
layers = (
{
layerId = "7EBE3D46-E53E-419E-A3EC-596DA2EA1E0D";
name = Regular;
shapes = (
{
closed = 1;
nodes = (
(363,-7,o),
(384,23,o),
(403,64,cs),
(614,520,l),
(464,520,l),
(326,221,ls),
(311,188,o),
(301,181,o),
(291,157,cs),
(283,138,o),
(299,-7,o),
(323,-7,cs)
);
}
);
width = 600;
},
{
layerId = m002;
name = Regular;
shapes = (
{
closed = 1;
nodes = (
(334,-6,o),
(343,-2,o),
(349,14,cs),
(520,510,l),
(487,510,l),
(344,75,ls),
(332,40,o),
(330,39,o),
(322,39,cs),
(319,39,o),
(328,-6,o),
(328,-6,cs)
);
}
);
width = 500;
}
);
},
{
export = 0;
glyphname = _yQ;
lastChange = "2023-04-05 05:53:40 +0000";
layers = (
{
layerId = "7EBE3D46-E53E-419E-A3EC-596DA2EA1E0D";
name = Regular;
shapes = (
{
closed = 1;
nodes = (
(219.364,8,l),
(201.594,-41.207,l),
(180.945,-97.734,o),
(145.599,-103.466,o),
(101.375,-82.627,c),
(114.674,-218.575,l),
(197.223,-234.556,o),
(258.018,-190.503,o),
(292.349,-100.1,c),
(332.358,8,l)
);
}
);
width = 600;
},
{
layerId = m002;
name = Regular;
shapes = (
{
closed = 1;
nodes = (
(219.364,8,l),
(201.594,-41.207,l),
(180.945,-97.734,o),
(145.599,-103.466,o),
(101.375,-82.627,c),
(114.674,-218.575,l),
(197.223,-234.556,o),
(258.018,-190.503,o),
(292.349,-100.1,c),
(332.358,8,l)
);
}
);
width = 500;
}
);
},
{
export = 0;
glyphname = _ya_cyr;
lastChange = "2023-04-05 05:53:40 +0000";
layers = (
{
layerId = "7EBE3D46-E53E-419E-A3EC-596DA2EA1E0D";
name = Regular;
shapes = (
{
closed = 1;
nodes = (
(70,332,o),
(156,291,o),
(274,291,c),
(313,291,o),
(351,291,o),
(385,292,c),
(380,377,l),
(338,376,o),
(319,376,o),
(273,378,c),
(228,380,o),
(182,397,o),
(182,454,c),
(182,543,o),
(70,595,o),
(70,454,c)
);
},
{
pos = (0,862);
ref = _u_cyr;
scale = (1,-1);
}
);
width = 600;
},
{
layerId = m002;
name = Regular;
shapes = (
{
closed = 1;
nodes = (
(70,332,o),
(156,291,o),
(274,291,c),
(313,291,o),
(351,291,o),
(385,292,c),
(380,377,l),
(338,376,o),
(319,376,o),
(273,378,c),
(228,380,o),
(182,397,o),
(182,454,c),
(182,543,o),
(70,595,o),
(70,454,c)
);
},
{
alignment = -1;
pos = (0,862);
ref = _u_cyr;
scale = (1,-1);
}
);
width = 500;
}
);
},
{
export = 0;
glyphname = _z;
lastChange = "2023-04-05 05:53:40 +0000";
layers = (
{
layerId = "7EBE3D46-E53E-419E-A3EC-596DA2EA1E0D";
name = Regular;
shapes = (
{
closed = 1;
nodes = (
(407,499,l),
(348,499,l),
(167,210,l),
(150,70,l),
(195,70,l),
(449,427,l)
);
}
);
width = 600;
},
{
layerId = m002;
name = Regular;
shapes = (
{
closed = 1;
nodes = (
(407,499,l),
(348,499,l),
(167,210,l),
(150,70,l),
(195,70,l),
(449,427,l)
);
}
);
width = 500;
}
);
},
{
export = 0;
glyphname = _ze_cyr;
lastChange = "2023-04-06 10:23:12 +0000";
layers = (
{
layerId = "7EBE3D46-E53E-419E-A3EC-596DA2EA1E0D";
name = Regular;
shapes = (
{
closed = 1;
nodes = (
(286,252,o),
(499,238,o),
(499,370,c),
(499,474,o),
(412,527,o),
(295,527,c),
(161,527,o),
(118,508,o),
(57,487,c),
(83,345,l),
(122,369,o),
(181,373,o),
(277,373,c),
(352,373,o),
(377,361,o),
(377,341,c),
(377,313,o),
(317,306,o),
(172,305,c),
(172,236,l)
);
}
);
width = 600;
},
{
layerId = m002;
name = Regular;
shapes = (
{
closed = 1;
nodes = (
(267,270,o),
(479,238,o),
(479,370,c),
(479,474,o),
(401,513,o),
(294,513,c),
(190,513,o),
(160,496,o),
(99,475,c),
(103,452,l),
(152,475,o),
(201,486,o),
(267,486,c),
(342,486,o),
(455,491,o),
(455,371,c),
(455,263,o),
(297,275,o),
(162,274,c),
(163,254,l)
);
}
);
width = 500;
}
);
},
{
export = 0;
glyphname = ball;
lastChange = "2023-04-05 05:53:40 +0000";
layers = (
{
layerId = "7EBE3D46-E53E-419E-A3EC-596DA2EA1E0D";
name = Regular;
shapes = (
{
closed = 1;
nodes = (
(364,430,o),
(383,449,o),
(383,472,cs),
(383,496,o),
(364,515,o),
(341,515,c),
(317,515,o),
(298,496,o),
(298,472,cs),
(298,449,o),
(317,430,o),
(341,430,c)
);
}
);
width = 600;
},
{
layerId = m002;
name = Regular;
shapes = (
{
closed = 1;
nodes = (
(364,430,o),
(383,449,o),
(383,472,cs),
(383,496,o),
(364,515,o),
(341,515,c),
(317,515,o),
(298,496,o),
(298,472,cs),
(298,449,o),
(317,430,o),
(341,430,c)
);
}
);
width = 500;
}
);
},
{
export = 0;
glyphname = "five-glyph";
lastChange = "2023-04-05 05:53:40 +0000";
layers = (
{
layerId = "7EBE3D46-E53E-419E-A3EC-596DA2EA1E0D";
name = Regular;
shapes = (
{
closed = 1;
nodes = (
(457,361,o),
(343,375,o),
(343,267,c),
(343,264,l),
(343,178,o),
(307,121,o),
(221,121,c),
(172,121,o),
(116,133,o),
(73,166,c),
(42,49,l),
(96,11,o),
(159,-8,o),
(221,-9,c),
(367,-9,o),
(457,106,o),
(457,255,c),
(457,277,l)
);
}
);
width = 600;
},
{
layerId = m002;
name = Regular;
shapes = (
{
closed = 1;
nodes = (
(457,361,o),
(343,375,o),
(343,267,c),
(343,264,l),
(343,178,o),
(307,121,o),
(221,121,c),
(172,121,o),
(116,133,o),
(73,166,c),
(42,49,l),
(96,11,o),
(159,-8,o),
(221,-9,c),
(367,-9,o),
(457,106,o),
(457,255,c),
(457,277,l)
);
}
);
width = 500;
}
);
},
{
export = 0;
glyphname = newGlyphaaa;
lastChange = "2023-04-05 05:53:40 +0000";
layers = (
{
layerId = "7EBE3D46-E53E-419E-A3EC-596DA2EA1E0D";
name = Regular;
shapes = (
{
closed = 1;
nodes = (
(453.418,163,o),
(504,234.239,o),
(504,317.5,c),
(504,400.761,o),
(453.418,472,o),
(398.5,472,c),
(343.582,472,o),
(293,400.761,o),
(293,317.5,c),
(293,234.239,o),
(343.582,163,o),
(398.5,163,c)
);
}
);
width = 600;
},
{
layerId = m002;
name = Regular;
shapes = (
{
closed = 1;
nodes = (
(453.418,163,o),
(504,234.239,o),
(504,317.5,c),
(504,400.761,o),
(453.418,472,o),
(398.5,472,c),
(343.582,472,o),
(293,400.761,o),
(293,317.5,c),
(293,234.239,o),
(343.582,163,o),
(398.5,163,c)
);
}
);
width = 500;
}
);
},
{
export = 0;
glyphname = _one.001;
lastChange = "2023-04-05 05:53:40 +0000";
layers = (
{
layerId = "7EBE3D46-E53E-419E-A3EC-596DA2EA1E0D";
name = Regular;
shapes = (
{
closed = 1;
nodes = (
(38,556.866,l),
(260,604.124,l),
(260,720,l),
(209.965,720,l),
(38,677.54,l)
);
},
{
pos = (117,3);
ref = _I_small;
},
{
pos = (117,168);
ref = _I_small;
},
{
pos = (117,331);
ref = _I_small;
},
{
pos = (117,477);
ref = _I_small;
},
{
pos = (-1,-219);
ref = "_dash-small";
},
{
pos = (-84,-219);
ref = "_dash-small";
}
);
width = 600;
},
{
layerId = m002;
name = Regular;
shapes = (
{
closed = 1;
nodes = (
(38,556.866,l),
(260,604.124,l),
(260,720,l),
(209.965,720,l),
(38,677.54,l)
);
},
{
pos = (117,3);
ref = _I_small;
},
{
pos = (117,168);
ref = _I_small;
},
{
pos = (117,331);
ref = _I_small;
},
{
pos = (117,477);
ref = _I_small;
},
{
pos = (-1,-219);
ref = "_dash-small";
},
{
pos = (-84,-219);
ref = "_dash-small";
}
);
width = 500;
}
);
},
